<svg id="Layer_1" data-name="Layer 1" xmlns="http://www.w3.org/2000/svg" width="228.54" height="68" viewBox="0 0 228.54 68"><defs><style>.cls-1{fill:#4c8c1e;}.cls-2{fill:#666;}</style></defs><path class="cls-1" d="M38.58,33.44c0-8.24,4-15.36,16-15.36,0,8.25-5.43,15.36-16,15.36"/><path class="cls-1" d="M57.73,55.05a15.75,15.75,0,0,0,5.73-1c0-6.51-3.89-11.17-10.75-14.52a40.57,40.57,0,0,0-17.62-4c2.59-7.77.7-17.41-1.81-22.7-2.77,5.55-4.51,15.05-1.84,22.78-5.24.38-9.39,2.66-11.15,5.67-.13.23-.4.72-.24.8s.33-.14.45-.25a10.1,10.1,0,0,1,6.81-2.61c5.56,0,9.49,4.62,12.26,7.39,6,6,11.79,8.42,18.16,8.41"/><path d="M80.71,24.45l-2.9,1.49a1.17,1.17,0,0,1-.44.18c-.11,0-.22-.07-.29-.25-.65-1.56-1.59-2.14-2.57-2.14H72.12a2.64,2.64,0,0,0-2.61,2.61V37.06a2.64,2.64,0,0,0,2.61,2.61h1.77a2.57,2.57,0,0,0,2.58-2.61v-1.7c0-.25-.11-.36-.37-.36H72.7c-.26,0-.37-.11-.37-.36V31.56c0-.26.11-.37.37-.37h7.57c.25,0,.36.11.36.37v5.5c0,3.77-2.64,6.42-6.74,6.42H72.12c-4.13,0-6.74-2.65-6.74-6.42V26.34c0-3.77,2.61-6.42,6.74-6.42h2.39a6.15,6.15,0,0,1,5.72,2.94,4.94,4.94,0,0,1,.69,1.34C80.92,24.31,80.85,24.38,80.71,24.45Z"/><path d="M92.23,43.11H84.08c-.26,0-.37-.1-.37-.36V20.65c0-.25.11-.36.37-.36h8.15C96.36,20.29,99,22.93,99,27v.36a6,6,0,0,1-1.92,3.91.29.29,0,0,0,0,.51A6.44,6.44,0,0,1,99,35.9v.55C99,40.54,96.36,43.11,92.23,43.11ZM94.84,26.7a2.65,2.65,0,0,0-2.61-2.61h-4c-.25,0-.36.11-.36.36v4.82c0,.26.11.37.36.37h4A2.65,2.65,0,0,0,94.84,27Zm0,9.31a2.57,2.57,0,0,0-2.61-2.57h-4c-.25,0-.36.11-.36.36V39c0,.25.11.36.36.36h4a2.6,2.6,0,0,0,2.61-2.61Z"/><path d="M106.22,43.11h-3.45c-.25,0-.36-.1-.36-.36V20.65c0-.25.11-.36.36-.36h3.45c.25,0,.36.11.36.36v22.1C106.58,43,106.47,43.11,106.22,43.11Z"/><path d="M124.3,24.09h-8.63c-.25,0-.36.11-.36.36v4.82c0,.26.11.37.36.37h7.07c.25,0,.36.1.36.36v3.08c0,.25-.11.36-.36.36h-7.07c-.25,0-.36.11-.36.36v9c0,.26-.11.36-.36.36h-3.44c-.26,0-.37-.1-.37-.36V20.65c0-.25.11-.36.37-.36H124.3c.25,0,.36.11.36.36v3.08C124.66,24,124.55,24.09,124.3,24.09Z"/><path class="cls-2" d="M71.84,55.05A.17.17,0,0,1,71.7,55a.16.16,0,0,1,0-.15l1.19-5.6a.26.26,0,0,1,.09-.16.27.27,0,0,1,.17-.06h.78a.24.24,0,0,1,.18.06.37.37,0,0,1,.06.1l1.54,3.62.76-3.56a.26.26,0,0,1,.09-.16.23.23,0,0,1,.16-.06h.87a.19.19,0,0,1,.15.06.21.21,0,0,1,0,.16l-1.19,5.6a.3.3,0,0,1-.09.15.27.27,0,0,1-.16.06H75.5a.21.21,0,0,1-.17-.06l-.07-.09L73.7,51.38,73,54.84a.24.24,0,0,1-.09.15.25.25,0,0,1-.17.06Z"/><path class="cls-2" d="M79.7,55.14a2.35,2.35,0,0,1-1.12-.24,1.32,1.32,0,0,1-.64-.68,1.79,1.79,0,0,1-.1-1,3.63,3.63,0,0,1,.07-.39,2.28,2.28,0,0,1,.1-.38,2.8,2.8,0,0,1,.48-1,2.24,2.24,0,0,1,.84-.68,3.05,3.05,0,0,1,1.22-.23,2.48,2.48,0,0,1,1.12.23,1.43,1.43,0,0,1,.65.68,1.66,1.66,0,0,1,.1,1c0,.1,0,.23-.07.38s-.06.28-.09.39a3,3,0,0,1-.47,1,2.15,2.15,0,0,1-.84.68A2.93,2.93,0,0,1,79.7,55.14Zm.11-1a1,1,0,0,0,.71-.26,1.5,1.5,0,0,0,.41-.77,3.17,3.17,0,0,0,.08-.35,2.28,2.28,0,0,0,.07-.34A1.17,1.17,0,0,0,81,51.7a.59.59,0,0,0-.57-.26,1,1,0,0,0-.7.26,1.63,1.63,0,0,0-.42.77c0,.08,0,.2-.08.34s0,.26-.06.35a1.24,1.24,0,0,0,0,.77A.6.6,0,0,0,79.81,54.19Z"/><path class="cls-2" d="M83,55.05a.17.17,0,0,1-.14-.06.16.16,0,0,1,0-.15l.86-4.05a.24.24,0,0,1,.09-.15.28.28,0,0,1,.17-.07h.84a.16.16,0,0,1,.13.07.19.19,0,0,1,0,.15l-.07.34a1.63,1.63,0,0,1,.52-.41,1.79,1.79,0,0,1,.77-.15h.46a.15.15,0,0,1,.13.06.15.15,0,0,1,0,.16l-.16.74a.24.24,0,0,1-.09.15.25.25,0,0,1-.16.06h-.75A1,1,0,0,0,85,52a1.06,1.06,0,0,0-.34.59l-.49,2.29A.24.24,0,0,1,84,55a.25.25,0,0,1-.17.06Z"/><path class="cls-2" d="M89,55.05a2,2,0,0,1-.93-.18.84.84,0,0,1-.47-.54,1.92,1.92,0,0,1,0-.93l.39-1.81h-.67a.16.16,0,0,1-.14-.06.15.15,0,0,1,0-.16l.12-.58a.26.26,0,0,1,.09-.16.27.27,0,0,1,.16-.06h.68l.31-1.42a.24.24,0,0,1,.09-.15.23.23,0,0,1,.16-.06h.85a.18.18,0,0,1,.14.06.19.19,0,0,1,0,.15l-.31,1.42H90.5a.14.14,0,0,1,.13.06.21.21,0,0,1,0,.16l-.12.58a.24.24,0,0,1-.09.16.27.27,0,0,1-.17.06H89.2l-.36,1.7a1.89,1.89,0,0,0,0,.38.26.26,0,0,0,.08.24.51.51,0,0,0,.32.08h.65a.15.15,0,0,1,.13.06.14.14,0,0,1,0,.15l-.13.64a.29.29,0,0,1-.09.15.25.25,0,0,1-.16.06Z"/><path class="cls-2" d="M90.69,55.05a.17.17,0,0,1-.14-.06.16.16,0,0,1,0-.15l1.21-5.69a.24.24,0,0,1,.09-.15.25.25,0,0,1,.16-.06h.93a.17.17,0,0,1,.14.06.19.19,0,0,1,0,.15l-.41,1.94a2.21,2.21,0,0,1,.61-.44,1.78,1.78,0,0,1,.8-.16,1.6,1.6,0,0,1,.91.23,1.16,1.16,0,0,1,.5.66,2,2,0,0,1,0,1L95,54.84a.24.24,0,0,1-.09.15.23.23,0,0,1-.16.06H93.8a.17.17,0,0,1-.18-.21l.5-2.35a1,1,0,0,0,0-.71.61.61,0,0,0-.57-.26,1.22,1.22,0,0,0-.5.11,1.3,1.3,0,0,0-.41.33,1.22,1.22,0,0,0-.23.53l-.5,2.35a.24.24,0,0,1-.09.15.23.23,0,0,1-.16.06Z"/><path class="cls-2" d="M97.28,55.05a.16.16,0,0,1-.15-.09.18.18,0,0,1,0-.17l3.22-5.53a.46.46,0,0,1,.14-.17.37.37,0,0,1,.23-.07h1.15a.28.28,0,0,1,.2.07.33.33,0,0,1,.07.17l.88,5.53A.23.23,0,0,1,103,55a.18.18,0,0,1-.15.07H102a.22.22,0,0,1-.18-.06.37.37,0,0,1-.07-.14l-.17-.94H99.11l-.58,1a.4.4,0,0,1-.11.12.33.33,0,0,1-.19,0Zm2.39-2.25h1.78l-.37-2.48Z"/><path class="cls-2" d="M103.76,55.05a.18.18,0,0,1-.17-.21l.86-4.05a.34.34,0,0,1,.1-.16.25.25,0,0,1,.16-.06h.8a.18.18,0,0,1,.14.06.21.21,0,0,1,0,.16l-.06.29a1.81,1.81,0,0,1,.33-.29,1.23,1.23,0,0,1,.41-.22,1.84,1.84,0,0,1,.56-.08,1.43,1.43,0,0,1,.81.2,1,1,0,0,1,.43.56,2.19,2.19,0,0,1,.63-.55,1.64,1.64,0,0,1,.84-.21,1.58,1.58,0,0,1,.8.2,1.17,1.17,0,0,1,.48.62,2.13,2.13,0,0,1,0,1.07l-.52,2.46a.38.38,0,0,1-.09.15.27.27,0,0,1-.16.06h-.86a.18.18,0,0,1-.17-.21l.52-2.39a1.51,1.51,0,0,0,0-.55.39.39,0,0,0-.19-.29.63.63,0,0,0-.35-.09.91.91,0,0,0-.37.09.87.87,0,0,0-.36.29,1.16,1.16,0,0,0-.23.55l-.52,2.39a.24.24,0,0,1-.09.15.23.23,0,0,1-.16.06h-.84a.16.16,0,0,1-.14-.06.16.16,0,0,1,0-.15l.51-2.39a1.35,1.35,0,0,0,0-.55.43.43,0,0,0-.2-.29.59.59,0,0,0-.34-.09.87.87,0,0,0-.37.09.91.91,0,0,0-.36.29,1.23,1.23,0,0,0-.24.54l-.51,2.4a.24.24,0,0,1-.09.15.25.25,0,0,1-.16.06Z"/><path class="cls-2" d="M113.35,55.14a2.12,2.12,0,0,1-1.09-.25,1.25,1.25,0,0,1-.6-.73,2.4,2.4,0,0,1,0-1.18l0-.18c0-.08,0-.14,0-.19a3.34,3.34,0,0,1,.54-1.14,2.58,2.58,0,0,1,.91-.73,2.71,2.71,0,0,1,1.18-.25,1.93,1.93,0,0,1,1.14.3,1.4,1.4,0,0,1,.56.8,2.6,2.6,0,0,1,0,1.18l0,.2a.24.24,0,0,1-.09.14.28.28,0,0,1-.18.06h-2.8a0,0,0,0,1,0,0s0,0,0,0a1.45,1.45,0,0,0,0,.51.59.59,0,0,0,.62.5,1,1,0,0,0,.36-.06,1,1,0,0,0,.27-.15,1.22,1.22,0,0,0,.16-.14.49.49,0,0,1,.15-.11l.15,0h.9a.14.14,0,0,1,.13,0s0,.07,0,.13a1.25,1.25,0,0,1-.21.34,2.54,2.54,0,0,1-.48.4,3.6,3.6,0,0,1-.71.32A3.28,3.28,0,0,1,113.35,55.14Zm-.26-2.75h1.69v0a1.08,1.08,0,0,0,0-.53.6.6,0,0,0-.22-.36.65.65,0,0,0-.43-.13.86.86,0,0,0-.48.13.89.89,0,0,0-.36.36,2,2,0,0,0-.22.53Z"/><path class="cls-2" d="M116.53,55.05a.18.18,0,0,1-.14-.06.19.19,0,0,1,0-.15l.86-4.05a.24.24,0,0,1,.09-.15.28.28,0,0,1,.17-.07h.84a.16.16,0,0,1,.13.07.14.14,0,0,1,0,.15l-.06.34a1.53,1.53,0,0,1,.52-.41,1.76,1.76,0,0,1,.77-.15h.45a.18.18,0,0,1,.14.06.21.21,0,0,1,0,.16l-.17.74a.24.24,0,0,1-.09.15.25.25,0,0,1-.16.06h-.75a1,1,0,0,0-.64.22,1.06,1.06,0,0,0-.34.59l-.49,2.29a.24.24,0,0,1-.09.15.25.25,0,0,1-.17.06Z"/><path class="cls-2" d="M120.23,55.05a.18.18,0,0,1-.17-.21l.86-4.05a.27.27,0,0,1,.1-.16.25.25,0,0,1,.16-.06H122a.17.17,0,0,1,.14.06.21.21,0,0,1,0,.16l-.87,4.05a.28.28,0,0,1-.08.15.25.25,0,0,1-.17.06Zm1.08-5.16a.17.17,0,0,1-.14-.06.22.22,0,0,1,0-.16l.14-.69a.51.51,0,0,1,.09-.16.27.27,0,0,1,.17-.06h.91a.17.17,0,0,1,.14.06.22.22,0,0,1,0,.16l-.16.69a.23.23,0,0,1-.08.16.27.27,0,0,1-.17.06Z"/><path class="cls-2" d="M124.37,55.14a2.16,2.16,0,0,1-1-.24,1.5,1.5,0,0,1-.67-.67,1.76,1.76,0,0,1-.1-1.06c0-.1,0-.21.07-.35s.05-.26.07-.35a2.6,2.6,0,0,1,.89-1.46,2.49,2.49,0,0,1,1.63-.52,2.4,2.4,0,0,1,.94.16,1.81,1.81,0,0,1,.6.41,1.23,1.23,0,0,1,.3.51,1,1,0,0,1,.06.46.22.22,0,0,1-.08.15.2.2,0,0,1-.15.06H126a.17.17,0,0,1-.13,0,.19.19,0,0,1-.07-.14.56.56,0,0,0-.17-.44.68.68,0,0,0-.46-.13,1,1,0,0,0-.67.25,1.39,1.39,0,0,0-.42.77c0,.11-.06.22-.08.32s0,.21,0,.29a1.16,1.16,0,0,0,.06.78.6.6,0,0,0,.54.24A1.08,1.08,0,0,0,125,54a1.1,1.1,0,0,0,.39-.43.57.57,0,0,1,.11-.14.24.24,0,0,1,.15,0h.93a.17.17,0,0,1,.14.06.16.16,0,0,1,0,.15,1.55,1.55,0,0,1-.21.44,2.22,2.22,0,0,1-.44.51,2.44,2.44,0,0,1-.73.41A2.88,2.88,0,0,1,124.37,55.14Z"/><path class="cls-2" d="M129,55.14a1.89,1.89,0,0,1-.75-.14,1.19,1.19,0,0,1-.49-.42,1.58,1.58,0,0,1-.24-.64,2.6,2.6,0,0,1,0-.83q0-.16.06-.3l.06-.29a4.65,4.65,0,0,1,.3-.82,2.52,2.52,0,0,1,.47-.64,1.87,1.87,0,0,1,.64-.42,2.14,2.14,0,0,1,.82-.15,1.59,1.59,0,0,1,.81.16,1.16,1.16,0,0,1,.43.39l.05-.25a.26.26,0,0,1,.09-.16.25.25,0,0,1,.16-.06h.82a.17.17,0,0,1,.14.06.21.21,0,0,1,0,.16l-.86,4.05a.28.28,0,0,1-.08.15.27.27,0,0,1-.17.06h-.82a.17.17,0,0,1-.14-.06.19.19,0,0,1,0-.15l.06-.3a2.14,2.14,0,0,1-.57.43A1.71,1.71,0,0,1,129,55.14Zm.49-1a1,1,0,0,0,.55-.14,1.19,1.19,0,0,0,.37-.37,1.46,1.46,0,0,0,.21-.48c0-.11.06-.22.08-.33l.06-.32a1.14,1.14,0,0,0,0-.45.65.65,0,0,0-.2-.35.71.71,0,0,0-.47-.14,1,1,0,0,0-.52.14,1.16,1.16,0,0,0-.35.38,2.38,2.38,0,0,0-.22.51l-.06.26a2.61,2.61,0,0,0-.06.27,2.93,2.93,0,0,0,0,.51.58.58,0,0,0,.17.37A.61.61,0,0,0,129.5,54.1Z"/></svg>