<?xml version="1.0" encoding="UTF-8" standalone="no"?>
<svg
   xmlns:dc="http://purl.org/dc/elements/1.1/"
   xmlns:cc="http://creativecommons.org/ns#"
   xmlns:rdf="http://www.w3.org/1999/02/22-rdf-syntax-ns#"
   xmlns:svg="http://www.w3.org/2000/svg"
   xmlns="http://www.w3.org/2000/svg"
   height="184.71107"
   width="858.92944"
   id="svg48"
   version="1.1"
   viewBox="0 0 858.92944 184.71108">
  <metadata
     id="metadata52">
    <rdf:RDF>
      <cc:Work
         rdf:about="">
        <dc:format>image/svg+xml</dc:format>
        <dc:type
           rdf:resource="http://purl.org/dc/dcmitype/StillImage" />
        <dc:title></dc:title>
      </cc:Work>
    </rdf:RDF>
  </metadata>
  <defs
     id="defs4">
    <style
       id="style2">.cls-1{fill:#4c9c2e;}.cls-2{fill:#231f20;}.cls-3{fill:none;stroke:#231f20;stroke-miterlimit:10;}</style>
  </defs>
  <g
     transform="translate(-60.530564,-94.3)"
     id="g885">
    <g
       id="Layer_1"
       data-name="Layer 1">
      <path
         style="fill:#4c9c2e"
         class="cls-1"
         d="m 142.45,184.51 c 0,-34.08 16.63,-63.57 66.12,-63.57 0,34.15 -22.46,63.57 -66.12,63.57"
         id="path6" />
      <path
         style="fill:#4c9c2e"
         class="cls-1"
         d="m 221.74,274 a 65.16,65.16 0 0 0 23.71,-4 c 0,-27 -16.09,-46.24 -44.51,-60.13 C 179.2,198.94 152.43,193.3 128,193.3 c 10.72,-32.15 2.91,-72.05 -7.47,-94 -11.5,22.94 -18.68,62.28 -7.64,94.28 -21.68,1.58 -38.88,11 -46.16,23.48 -0.55,0.95 -1.65,3 -1,3.32 0.65,0.32 1.36,-0.57 1.88,-1 A 41.63,41.63 0 0 1 95.8,208.6 c 23,0 39.27,19.1 50.76,30.58 24.68,24.68 48.8,34.86 75.18,34.81"
         id="path8" />
    </g>
    <g
       id="outlined_fonts"
       data-name="outlined fonts">
      <path
         style="fill:#231f20"
         class="cls-2"
         d="m 316.84,147.33 -12,6.15 a 4.62,4.62 0 0 1 -1.8,0.75 c -0.45,0 -0.9,-0.3 -1.2,-1 -2.7,-6.45 -6.6,-8.85 -10.65,-8.85 h -9.9 a 11,11 0 0 0 -10.8,10.8 v 44.4 a 11,11 0 0 0 10.8,10.8 h 7.35 a 10.63,10.63 0 0 0 10.65,-10.8 v -7.05 c 0,-1 -0.45,-1.5 -1.5,-1.5 h -14.1 c -1.05,0 -1.5,-0.45 -1.5,-1.5 v -12.8 c 0,-1 0.45,-1.5 1.5,-1.5 H 315 c 1,0 1.5,0.45 1.5,1.5 v 22.8 c 0,15.6 -11,26.55 -27.9,26.55 h -7.35 c -17.1,0 -27.9,-11 -27.9,-26.55 v -44.4 c 0,-15.6 10.8,-26.55 27.9,-26.55 h 9.9 c 12.45,0 19.2,5.1 23.7,12.15 1.35,2.25 2.85,4.65 2.85,5.55 0.04,0.45 -0.26,0.72 -0.86,1.05 z"
         id="path11" />
      <path
         style="fill:#231f20"
         class="cls-2"
         d="m 364.54,224.58 h -33.75 c -1.05,0 -1.5,-0.45 -1.5,-1.5 v -91.5 c 0,-1.05 0.45,-1.5 1.5,-1.5 h 33.75 c 17.1,0 27.9,10.95 27.9,27.9 v 1.5 c 0,5.55 -3.6,12 -7.95,16.2 a 1.22,1.22 0 0 0 0,2.1 c 4.35,4.2 7.95,11.4 7.95,16.95 V 197 c 0,16.93 -10.8,27.58 -27.9,27.58 z m 10.8,-68 a 11,11 0 0 0 -10.8,-10.8 H 348 c -1.05,0 -1.5,0.45 -1.5,1.5 v 19.95 c 0,1.05 0.45,1.5 1.5,1.5 h 16.5 a 11,11 0 0 0 10.8,-10.8 z m 0,38.55 a 10.63,10.63 0 0 0 -10.8,-10.65 H 348 c -1.05,0 -1.5,0.45 -1.5,1.5 v 21.3 c 0,1 0.45,1.5 1.5,1.5 h 16.5 a 10.75,10.75 0 0 0 10.8,-10.8 z"
         id="path13" />
      <path
         style="fill:#231f20"
         class="cls-2"
         d="m 422.44,224.58 h -14.25 c -1.05,0 -1.5,-0.45 -1.5,-1.5 v -91.5 c 0,-1.05 0.45,-1.5 1.5,-1.5 h 14.25 c 1.05,0 1.5,0.45 1.5,1.5 v 91.5 c 0,1.05 -0.45,1.5 -1.5,1.5 z"
         id="path15" />
      <path
         style="fill:#231f20"
         class="cls-2"
         d="m 497.28,145.83 h -35.69 c -1,0 -1.5,0.45 -1.5,1.5 v 19.95 c 0,1.05 0.45,1.5 1.5,1.5 h 29.24 c 1.05,0 1.5,0.45 1.5,1.5 V 183 c 0,1.05 -0.45,1.5 -1.5,1.5 h -29.24 c -1,0 -1.5,0.45 -1.5,1.5 v 37.05 c 0,1 -0.45,1.5 -1.5,1.5 h -14.25 c -1,0 -1.5,-0.45 -1.5,-1.5 v -91.5 c 0,-1.05 0.45,-1.5 1.5,-1.5 h 52.94 c 1.05,0 1.5,0.45 1.5,1.5 v 12.75 c 0,1.08 -0.45,1.53 -1.5,1.53 z"
         id="path17" />
    </g>
    <g
       id="post">
      <line
         style="fill:none;stroke:#231f20;stroke-miterlimit:10"
         class="cls-3"
         x1="527.39001"
         y1="113.33"
         x2="527.39001"
         y2="238.67"
         id="line20" />
    </g>
    <g
       id="outlined_NA"
       data-name="outlined NA">
      <path
         style="fill:#231f20"
         class="cls-2"
         d="m 577.55,196.33 h -4 a 0.87,0.87 0 0 1 -0.65,-0.36 l -16.41,-29.81 a 17.08,17.08 0 0 1 -1.37,-3.38 h -0.22 c 0.15,2.59 0.22,9.94 0.22,17.57 v 15.26 c 0,0.51 -0.22,0.72 -0.72,0.72 h -4.18 c -0.5,0 -0.72,-0.21 -0.72,-0.72 v -43.92 c 0,-0.5 0.22,-0.72 0.72,-0.72 h 4 a 0.74,0.74 0 0 1 0.65,0.36 l 16.42,30 a 20.12,20.12 0 0 1 1.29,3.09 h 0.22 c -0.07,-2.95 -0.14,-11.59 -0.14,-17.28 v -15.45 c 0,-0.5 0.21,-0.72 0.72,-0.72 h 4.24 c 0.51,0 0.73,0.22 0.73,0.72 v 43.92 c -0.07,0.51 -0.29,0.72 -0.8,0.72 z"
         id="path23" />
      <path
         style="fill:#231f20"
         class="cls-2"
         d="m 600.16,197.05 c -7.63,0 -12.74,-5 -12.74,-12 v -9.65 c 0,-6.84 5,-11.95 12.74,-11.95 7.74,0 12.75,5 12.75,11.95 v 9.65 c 0,6.89 -4.97,12 -12.75,12 z m 7.06,-22 a 7.0622942,7.0622942 0 0 0 -14.12,0.36 v 10 a 7.0622942,7.0622942 0 0 0 14.12,-0.36 z"
         id="path25" />
      <path
         style="fill:#231f20"
         class="cls-2"
         d="m 635.37,170.2 a 3.66,3.66 0 0 0 -1.3,-0.22 6.69,6.69 0 0 0 -7.06,6.91 v 18.72 c 0,0.51 -0.21,0.72 -0.72,0.72 h -4.24 c -0.51,0 -0.72,-0.21 -0.72,-0.72 v -30.67 c 0,-0.51 0.21,-0.72 0.72,-0.72 h 3.53 c 0.5,0 0.71,0.21 0.71,0.72 v 2.95 c 0,0.79 0.72,1.15 1.23,0.5 1.87,-2.66 4.32,-4.17 6.55,-4.17 h 1.59 c 0.5,0 0.64,0.29 0.64,0.79 v 4.54 c 0,0.57 -0.36,0.86 -0.93,0.65 z"
         id="path27" />
      <path
         style="fill:#231f20"
         class="cls-2"
         d="m 655.67,197 a 14,14 0 0 1 -7.27,-2.74 11.42,11.42 0 0 1 -4.18,-9.21 v -15.21 c 0,-0.51 -0.21,-0.72 -0.72,-0.72 h -4 c -0.5,0 -0.72,-0.22 -0.72,-0.73 v -1.94 l 8.21,-8.64 a 1.09,1.09 0 0 1 0.5,-0.22 h 1.73 c 0.5,0 0.72,0.22 0.72,0.72 v 5.19 c 0,0.5 0.22,0.72 0.72,0.72 h 5.11 c 0.51,0 0.72,0.21 0.72,0.72 v 3.45 c 0,0.51 -0.21,0.73 -0.72,0.73 h -5.11 c -0.5,0 -0.72,0.21 -0.72,0.72 V 185 a 7,7 0 0 0 6,6.91 0.65,0.65 0 0 1 0.57,0.72 v 3.6 a 0.64,0.64 0 0 1 -0.84,0.77 z"
         id="path29" />
      <path
         style="fill:#231f20"
         class="cls-2"
         d="m 687.42,196.33 h -4.24 c -0.51,0 -0.72,-0.21 -0.72,-0.72 v -19.44 a 7.18,7.18 0 0 0 -7.13,-7 7.06,7.06 0 0 0 -7.06,7 v 19.44 c 0,0.51 -0.22,0.72 -0.72,0.72 h -4.25 c -0.5,0 -0.72,-0.21 -0.72,-0.72 v -43.92 c 0,-0.5 0.22,-0.72 0.72,-0.72 h 4.25 c 0.5,0 0.72,0.22 0.72,0.72 v 15.05 c 0,0.79 0.72,1.08 1.22,0.5 a 8.93,8.93 0 0 1 6.56,-3 c 6.84,0 12.09,4.9 12.09,11.95 v 19.44 c 0,0.49 -0.21,0.7 -0.72,0.7 z"
         id="path31" />
      <path
         style="fill:#231f20"
         class="cls-2"
         d="M 736.53,196.33 H 732 a 0.64,0.64 0 0 1 -0.72,-0.5 l -2.74,-9.72 c -0.07,-0.36 -0.36,-0.43 -0.72,-0.43 h -13 c -0.36,0 -0.64,0.07 -0.72,0.43 l -2.73,9.72 a 0.65,0.65 0 0 1 -0.72,0.5 h -4.15 c -0.65,0 -0.86,-0.36 -0.72,-0.93 l 13.39,-43.93 a 0.65,0.65 0 0 1 0.72,-0.5 h 3.32 a 0.65,0.65 0 0 1 0.72,0.5 l 13.32,43.93 c 0.14,0.6 -0.08,0.93 -0.72,0.93 z m -14,-32.54 c -0.65,-2.6 -1,-5.19 -1,-5.19 h -0.22 a 49.37,49.37 0 0 1 -1.08,5.19 l -4.32,16 a 0.67,0.67 0 0 0 0.72,0.94 h 9.29 a 0.67,0.67 0 0 0 0.72,-0.94 z"
         id="path33" />
      <path
         style="fill:#231f20"
         class="cls-2"
         d="m 784.33,196.33 h -4.24 c -0.51,0 -0.72,-0.21 -0.72,-0.72 v -19.44 c 0,-3.89 -3.32,-7 -6.34,-7 -2.81,0 -6.34,3.09 -6.34,7 v 19.44 c 0,0.51 -0.21,0.72 -0.72,0.72 h -4.25 c -0.5,0 -0.72,-0.21 -0.72,-0.72 v -19.44 c 0,-3.89 -3.31,-7 -6.33,-7 -3.02,0 -6.34,3.09 -6.34,7 v 19.44 c 0,0.51 -0.21,0.72 -0.72,0.72 h -4.25 c -0.5,0 -0.72,-0.21 -0.72,-0.72 v -30.67 c 0,-0.51 0.22,-0.72 0.72,-0.72 h 3.53 c 0.51,0 0.72,0.21 0.72,0.72 v 1.87 c 0,0.79 0.58,1.15 1.15,0.58 a 9,9 0 0 1 6.63,-3.17 10.23,10.23 0 0 1 7.92,3.74 c 0.36,0.51 0.79,0.43 1.15,0 a 11.11,11.11 0 0 1 8.57,-3.74 11.59,11.59 0 0 1 12,11.95 v 19.44 c 0.02,0.51 -0.19,0.72 -0.7,0.72 z"
         id="path35" />
      <path
         style="fill:#231f20"
         class="cls-2"
         d="m 817.88,180.92 h -18.36 c -0.5,0 -0.72,0.22 -0.72,0.72 V 185 a 7.12,7.12 0 0 0 7.06,7.05 7.52,7.52 0 0 0 6.41,-4.1 0.65,0.65 0 0 1 0.93,-0.29 l 3.82,1.95 c 0.43,0.21 0.5,0.5 0.29,0.93 a 12.89,12.89 0 0 1 -2.38,3.24 c -1.94,1.95 -4.75,3.24 -9.07,3.24 -7.78,0 -12.75,-4.89 -12.75,-12 v -9.58 c 0,-6.84 5,-11.95 12.75,-11.95 7.75,0 12.74,5 12.74,11.95 v 4.75 c 0,0.52 -0.21,0.73 -0.72,0.73 z m -5,-5.83 a 7.0622942,7.0622942 0 0 0 -14.12,0.36 v 0.79 c 0,0.36 0.36,0.44 0.72,0.44 h 12.72 c 0.5,0 0.72,-0.22 0.72,-0.72 z"
         id="path37" />
      <path
         style="fill:#231f20"
         class="cls-2"
         d="m 841.07,170.2 a 3.66,3.66 0 0 0 -1.3,-0.22 6.69,6.69 0 0 0 -7.06,6.91 v 18.72 c 0,0.51 -0.21,0.72 -0.72,0.72 h -4.24 c -0.51,0 -0.72,-0.21 -0.72,-0.72 v -30.67 c 0,-0.51 0.21,-0.72 0.72,-0.72 h 3.52 c 0.51,0 0.72,0.21 0.72,0.72 v 2.95 c 0,0.79 0.72,1.15 1.23,0.5 1.87,-2.66 4.32,-4.17 6.55,-4.17 h 1.59 c 0.5,0 0.64,0.29 0.64,0.79 v 4.54 c 0,0.57 -0.36,0.86 -0.93,0.65 z"
         id="path39" />
      <path
         style="fill:#231f20"
         class="cls-2"
         d="m 849.56,157.38 a 3.57,3.57 0 1 1 3.6,-3.6 3.61,3.61 0 0 1 -3.6,3.6 z m 2.16,39 h -4.25 c -0.5,0 -0.72,-0.21 -0.72,-0.72 v -30.72 c 0,-0.51 0.22,-0.72 0.72,-0.72 h 4.25 c 0.51,0 0.72,0.21 0.72,0.72 v 30.67 c 0,0.51 -0.21,0.72 -0.72,0.72 z"
         id="path41" />
      <path
         style="fill:#231f20"
         class="cls-2"
         d="m 882.32,194.17 c -1.94,1.73 -4.68,2.88 -8.71,2.88 -7.78,0 -12.75,-5.18 -12.75,-12 v -9.58 c 0,-6.84 5,-11.95 12.75,-11.95 4,0 6.77,1.15 8.71,2.81 a 12.61,12.61 0 0 1 2.74,3.45 0.69,0.69 0 0 1 -0.36,1 l -3.82,1.95 c -0.36,0.21 -0.65,0.07 -0.86,-0.29 a 7.74,7.74 0 0 0 -6.41,-4 6.73,6.73 0 0 0 -7.06,7.06 v 9.5 a 6.72,6.72 0 0 0 7.06,7.05 7.52,7.52 0 0 0 6.39,-4.05 0.65,0.65 0 0 1 0.93,-0.29 l 3.82,1.95 c 0.43,0.21 0.5,0.5 0.29,0.93 a 14.44,14.44 0 0 1 -2.72,3.58 z"
         id="path43" />
      <path
         style="fill:#231f20"
         class="cls-2"
         d="m 913.64,196.33 h -3.45 c -0.51,0 -0.72,-0.21 -0.72,-0.72 v -2 c 0,-0.79 -0.72,-1.15 -1.3,-0.58 -2.09,2.09 -4.61,3.31 -6.26,3.31 h -2.81 c -5.19,0 -9.36,-3.45 -9.36,-8.71 v -0.43 c 0,-5.26 4.17,-8.64 9.36,-8.64 h 8.9 c 0.5,0 0.71,-0.22 0.71,-0.72 v -2.45 a 7,7 0 0 0 -7.12,-6.91 7.26,7.26 0 0 0 -6.34,4 0.72,0.72 0 0 1 -1,0.29 l -3.67,-1.95 a 0.63,0.63 0 0 1 -0.29,-1 12.35,12.35 0 0 1 3,-3.45 12.77,12.77 0 0 1 8.36,-2.74 c 7.77,0 12.81,4.68 12.81,11.81 v 20.23 c -0.1,0.45 -0.31,0.66 -0.82,0.66 z m -5,-12.89 c 0,-0.5 -0.21,-0.72 -0.71,-0.72 h -8.83 a 3.73,3.73 0 0 0 -3.75,3.75 v 1.15 a 3.77,3.77 0 0 0 3.75,3.75 h 2.81 c 3.09,0 5.9,-2.81 6.76,-5.69 z"
         id="path45" />
    </g>
  </g>
</svg>
