<svg id="Layer_1" data-name="Layer 1" xmlns="http://www.w3.org/2000/svg" width="201.43" height="68" viewBox="0 0 201.43 68"><defs><style>.cls-1{fill:#4c8c1e;}.cls-2{fill:#666;}</style></defs><path class="cls-1" d="M36.37,33.2c0-11.69,5.7-21.8,22.67-21.8,0,11.71-7.7,21.8-22.67,21.8"/><path class="cls-1" d="M63.55,63.88a22.18,22.18,0,0,0,8.13-1.38c0-9.24-5.51-15.85-15.26-20.61a57.61,57.61,0,0,0-25-5.68c3.67-11,1-24.7-2.57-32.21-3.94,7.87-6.4,21.35-2.61,32.32-7.44.55-13.34,3.78-15.83,8.06-.19.32-.57,1-.34,1.13s.47-.19.64-.35a14.29,14.29,0,0,1,9.66-3.7c7.9,0,13.47,6.55,17.41,10.48,8.46,8.46,16.73,12,25.77,11.94"/><path d="M96.16,20.45,92,22.56a1.61,1.61,0,0,1-.61.26c-.16,0-.31-.11-.41-.36-.93-2.22-2.27-3-3.66-3H84a3.76,3.76,0,0,0-3.7,3.7V38.35a3.76,3.76,0,0,0,3.7,3.7h2.52a3.64,3.64,0,0,0,3.65-3.7V35.93c0-.36-.15-.51-.51-.51H84.79c-.36,0-.51-.16-.51-.52V30.53c0-.36.15-.51.51-.51H95.54c.36,0,.52.15.52.51v7.82c0,5.35-3.76,9.1-9.57,9.1H84c-5.86,0-9.57-3.75-9.57-9.1V23.12c0-5.34,3.71-9.1,9.57-9.1h3.39c4.27,0,6.59,1.75,8.13,4.17a7.37,7.37,0,0,1,1,1.9C96.47,20.24,96.36,20.35,96.16,20.45Z"/><path d="M112.51,46.94H100.94c-.36,0-.51-.16-.51-.52V15.05c0-.36.15-.51.51-.51h11.57c5.87,0,9.57,3.75,9.57,9.56v.52a8.52,8.52,0,0,1-2.73,5.55.42.42,0,0,0,0,.72,9.13,9.13,0,0,1,2.73,5.81v.77C122.08,43.28,118.38,46.94,112.51,46.94Zm3.71-23.3a3.75,3.75,0,0,0-3.71-3.7h-5.65c-.36,0-.52.15-.52.51v6.84c0,.36.16.51.52.51h5.65a3.75,3.75,0,0,0,3.71-3.7Zm0,13.22a3.65,3.65,0,0,0-3.71-3.66h-5.65c-.36,0-.52.16-.52.52V41c0,.36.16.52.52.52h5.65a3.7,3.7,0,0,0,3.71-3.71Z"/><path d="M132.37,46.94h-4.89c-.36,0-.51-.16-.51-.52V15.05c0-.36.15-.51.51-.51h4.89c.36,0,.51.15.51.51V46.42C132.88,46.78,132.73,46.94,132.37,46.94Z"/><path d="M158,19.94H145.79c-.36,0-.52.15-.52.51v6.84c0,.36.16.51.52.51h10c.36,0,.51.16.51.52v4.37c0,.36-.15.51-.51.51h-10c-.36,0-.52.16-.52.52v12.7c0,.36-.15.52-.51.52h-4.88c-.36,0-.52-.16-.52-.52V15.05c0-.36.16-.51.52-.51H158c.36,0,.51.15.51.51v4.37C158.54,19.78,158.39,19.94,158,19.94Z"/><path class="cls-2" d="M82.78,63.88a.19.19,0,0,1-.2-.12.27.27,0,0,1,0-.25l4.57-7.86a.87.87,0,0,1,.2-.23.54.54,0,0,1,.33-.1h1.64a.38.38,0,0,1,.28.1.48.48,0,0,1,.1.23L91,63.51a.3.3,0,0,1-.06.27.27.27,0,0,1-.22.1H89.42a.3.3,0,0,1-.25-.09.44.44,0,0,1-.1-.19l-.24-1.34H85.38l-.82,1.37a.64.64,0,0,1-.16.17.41.41,0,0,1-.27.08Zm3.39-3.19H88.7l-.52-3.52Z"/><path class="cls-2" d="M92.21,63.88a.25.25,0,0,1-.2-.09.26.26,0,0,1-.05-.22l1.22-5.74a.4.4,0,0,1,.14-.22.35.35,0,0,1,.23-.09h1.14a.23.23,0,0,1,.19.09.27.27,0,0,1,0,.22l-.09.41a6.14,6.14,0,0,1,.47-.42,2.51,2.51,0,0,1,.59-.3,2.34,2.34,0,0,1,.79-.12,2.17,2.17,0,0,1,1.15.28,1.42,1.42,0,0,1,.62.8,3.15,3.15,0,0,1,.89-.78,2.26,2.26,0,0,1,1.19-.3,2.13,2.13,0,0,1,1.13.29,1.53,1.53,0,0,1,.68.88,2.85,2.85,0,0,1,0,1.52l-.75,3.48a.34.34,0,0,1-.12.22.35.35,0,0,1-.23.09H100a.25.25,0,0,1-.2-.09.26.26,0,0,1,0-.22l.74-3.38a2.18,2.18,0,0,0,0-.79.64.64,0,0,0-.26-.41,1,1,0,0,0-.51-.12,1.34,1.34,0,0,0-.52.12,1.31,1.31,0,0,0-.51.41,1.64,1.64,0,0,0-.33.79l-.74,3.38a.3.3,0,0,1-.12.22.32.32,0,0,1-.23.09h-1.2a.23.23,0,0,1-.2-.09.26.26,0,0,1,0-.22l.72-3.38a1.81,1.81,0,0,0,0-.79.62.62,0,0,0-.27-.41.92.92,0,0,0-.48-.12,1.25,1.25,0,0,0-.54.13,1.31,1.31,0,0,0-.51.41,1.77,1.77,0,0,0-.33.77l-.72,3.39a.39.39,0,0,1-.36.31Z"/><path class="cls-2" d="M106,64a3.15,3.15,0,0,1-1.55-.35,1.82,1.82,0,0,1-.85-1,3.55,3.55,0,0,1-.06-1.68,2.07,2.07,0,0,0,.06-.26,2.07,2.07,0,0,1,.06-.26,4.51,4.51,0,0,1,.77-1.62,3.41,3.41,0,0,1,1.28-1,3.9,3.9,0,0,1,1.68-.36,2.78,2.78,0,0,1,1.62.42,2,2,0,0,1,.79,1.15,3.61,3.61,0,0,1,0,1.67l0,.28a.36.36,0,0,1-.14.21.35.35,0,0,1-.24.08h-4a.43.43,0,0,0,0,0,.08.08,0,0,1,0,.05,2.17,2.17,0,0,0,0,.72.9.9,0,0,0,.29.52.87.87,0,0,0,.59.19,1.37,1.37,0,0,0,.89-.29l.24-.21a.68.68,0,0,1,.2-.15.65.65,0,0,1,.22,0h1.27a.25.25,0,0,1,.19.06.18.18,0,0,1,0,.19,1.23,1.23,0,0,1-.3.49,2.86,2.86,0,0,1-.68.56,4.64,4.64,0,0,1-1,.46A4.37,4.37,0,0,1,106,64Zm-.37-3.9h2.4v0a1.71,1.71,0,0,0,0-.77.91.91,0,0,0-.32-.5.89.89,0,0,0-.61-.19,1.22,1.22,0,0,0-.68.19,1.62,1.62,0,0,0-.51.5,2.7,2.7,0,0,0-.31.77Z"/><path class="cls-2" d="M110.76,63.88a.25.25,0,0,1-.2-.09.26.26,0,0,1,0-.22l1.22-5.74a.34.34,0,0,1,.13-.21.32.32,0,0,1,.23-.1h1.2a.21.21,0,0,1,.19.1.22.22,0,0,1,0,.21l-.09.49a2,2,0,0,1,.73-.58,2.6,2.6,0,0,1,1.1-.22h.65a.23.23,0,0,1,.19.09.31.31,0,0,1,0,.22l-.23,1.05a.38.38,0,0,1-.13.22.35.35,0,0,1-.23.09H114.5a1.42,1.42,0,0,0-.91.29,1.49,1.49,0,0,0-.48.85l-.7,3.24a.38.38,0,0,1-.37.31Z"/><path class="cls-2" d="M116.23,63.88a.25.25,0,0,1-.24-.31l1.22-5.74a.41.41,0,0,1,.37-.31h1.22a.23.23,0,0,1,.2.09.27.27,0,0,1,0,.22l-1.22,5.74a.4.4,0,0,1-.12.22.33.33,0,0,1-.23.09Zm1.53-7.33a.24.24,0,0,1-.2-.09.27.27,0,0,1,0-.22l.21-1a.32.32,0,0,1,.12-.22.36.36,0,0,1,.24-.09h1.29a.25.25,0,0,1,.2.09.27.27,0,0,1,0,.22l-.22,1a.32.32,0,0,1-.12.22.37.37,0,0,1-.23.09Z"/><path class="cls-2" d="M122.32,64a3.19,3.19,0,0,1-1.48-.33,2.08,2.08,0,0,1-.94-1,2.48,2.48,0,0,1-.15-1.51c0-.13.06-.29.1-.49s.08-.37.11-.5a3.7,3.7,0,0,1,1.25-2.07,3.62,3.62,0,0,1,2.32-.74,3.45,3.45,0,0,1,1.33.23,2.5,2.5,0,0,1,.85.58,2,2,0,0,1,.44.72,1.61,1.61,0,0,1,.08.66.36.36,0,0,1-.11.22.32.32,0,0,1-.22.08h-1.33a.25.25,0,0,1-.19-.06.31.31,0,0,1-.1-.19.81.81,0,0,0-.23-.63,1,1,0,0,0-.66-.19,1.48,1.48,0,0,0-1,.35,2.11,2.11,0,0,0-.59,1.1c0,.16-.08.31-.11.46a3.92,3.92,0,0,0-.07.41,1.67,1.67,0,0,0,.09,1.1.82.82,0,0,0,.76.34,1.55,1.55,0,0,0,.76-.18,1.45,1.45,0,0,0,.56-.61.56.56,0,0,1,.16-.2.33.33,0,0,1,.21-.06h1.32a.23.23,0,0,1,.2.09.22.22,0,0,1,0,.22,2.63,2.63,0,0,1-.3.62,3.16,3.16,0,0,1-.63.72,3.52,3.52,0,0,1-1,.59A4.28,4.28,0,0,1,122.32,64Z"/><path class="cls-2" d="M129.12,64a2.64,2.64,0,0,1-1.06-.2,1.62,1.62,0,0,1-.7-.59,2.3,2.3,0,0,1-.34-.91,3.94,3.94,0,0,1,0-1.18c0-.16,0-.3.08-.43s.06-.26.09-.4a5.56,5.56,0,0,1,.43-1.17,3.6,3.6,0,0,1,.66-.91,2.94,2.94,0,0,1,2.08-.81,2.36,2.36,0,0,1,1.15.23,1.81,1.81,0,0,1,.61.55l.07-.35a.38.38,0,0,1,.13-.22.33.33,0,0,1,.23-.09h1.16a.24.24,0,0,1,.2.09.27.27,0,0,1,0,.22l-1.22,5.74a.4.4,0,0,1-.12.22.36.36,0,0,1-.24.09h-1.16a.24.24,0,0,1-.2-.09.26.26,0,0,1,0-.22l.08-.41a3.56,3.56,0,0,1-.8.6A2.41,2.41,0,0,1,129.12,64Zm.69-1.47a1.49,1.49,0,0,0,.79-.2,1.79,1.79,0,0,0,.53-.53,2.76,2.76,0,0,0,.3-.68c0-.16.07-.31.11-.47s.06-.3.08-.45a1.72,1.72,0,0,0,0-.64.87.87,0,0,0-.28-.5,1,1,0,0,0-.67-.19,1.23,1.23,0,0,0-.73.2,1.5,1.5,0,0,0-.5.53,2.57,2.57,0,0,0-.31.72c0,.12-.07.25-.1.38s-.05.26-.07.38a3.54,3.54,0,0,0,0,.72.8.8,0,0,0,.24.53A.85.85,0,0,0,129.81,62.53Z"/><path class="cls-2" d="M138.82,64a2.67,2.67,0,0,1-1.06-.2,1.65,1.65,0,0,1-.71-.59,2.17,2.17,0,0,1-.35-.91,4.28,4.28,0,0,1,0-1.18c0-.16.06-.3.09-.43a3.89,3.89,0,0,1,.1-.4,5,5,0,0,1,.42-1.17,3.6,3.6,0,0,1,.66-.91,2.91,2.91,0,0,1,.91-.59A2.78,2.78,0,0,1,140,57.4a2.4,2.4,0,0,1,1.1.22,1.46,1.46,0,0,1,.66.55l.57-2.66a.34.34,0,0,1,.12-.22.35.35,0,0,1,.23-.09H144a.23.23,0,0,1,.2.09.26.26,0,0,1,0,.22l-1.71,8.06a.32.32,0,0,1-.13.22.33.33,0,0,1-.23.09H141a.26.26,0,0,1-.21-.09.26.26,0,0,1,0-.22l.09-.41a3.68,3.68,0,0,1-.82.6A2.5,2.5,0,0,1,138.82,64Zm.7-1.47a1.56,1.56,0,0,0,.8-.2,2,2,0,0,0,.54-.53,2.17,2.17,0,0,0,.3-.68c0-.16.08-.31.11-.47s.06-.3.08-.45a1.38,1.38,0,0,0,0-.64,1,1,0,0,0-.3-.5,1,1,0,0,0-.67-.19,1.32,1.32,0,0,0-.75.2,1.52,1.52,0,0,0-.51.53,3.35,3.35,0,0,0-.32.72l-.09.38c0,.13-.05.26-.07.38a2.91,2.91,0,0,0,0,.72.81.81,0,0,0,.25.53A.88.88,0,0,0,139.52,62.53Z"/><path class="cls-2" d="M147,64a3.15,3.15,0,0,1-1.55-.35,1.82,1.82,0,0,1-.85-1,3.55,3.55,0,0,1-.06-1.68,2.07,2.07,0,0,0,.06-.26,2.07,2.07,0,0,1,.06-.26,4.51,4.51,0,0,1,.77-1.62,3.41,3.41,0,0,1,1.28-1,3.9,3.9,0,0,1,1.68-.36,2.78,2.78,0,0,1,1.62.42,2,2,0,0,1,.79,1.15,3.61,3.61,0,0,1,0,1.67l-.05.28a.36.36,0,0,1-.14.21.35.35,0,0,1-.24.08h-4a.43.43,0,0,0,0,0,.08.08,0,0,1,0,.05,2.17,2.17,0,0,0,0,.72.9.9,0,0,0,.29.52.87.87,0,0,0,.59.19,1.37,1.37,0,0,0,.89-.29l.24-.21a.84.84,0,0,1,.2-.15.65.65,0,0,1,.22,0h1.27a.25.25,0,0,1,.19.06.18.18,0,0,1,0,.19,1.23,1.23,0,0,1-.3.49,2.86,2.86,0,0,1-.68.56,4.64,4.64,0,0,1-1,.46A4.37,4.37,0,0,1,147,64Zm-.37-3.9h2.4v0a1.71,1.71,0,0,0,0-.77.91.91,0,0,0-.32-.5.89.89,0,0,0-.61-.19,1.22,1.22,0,0,0-.68.19,1.62,1.62,0,0,0-.51.5,2.7,2.7,0,0,0-.31.77Z"/><path class="cls-2" d="M151.75,63.88a.25.25,0,0,1-.2-.09.26.26,0,0,1,0-.22l1.72-8.06a.36.36,0,0,1,.13-.22.33.33,0,0,1,.22-.09h1.22a.26.26,0,0,1,.21.09.26.26,0,0,1,0,.22l-1.72,8.06a.36.36,0,0,1-.13.22.32.32,0,0,1-.23.09Z"/><path class="cls-2" d="M157.56,63.88a.24.24,0,0,1-.2-.09.23.23,0,0,1-.05-.22L159,55.63a.34.34,0,0,1,.13-.22.32.32,0,0,1,.23-.09h1.1a.35.35,0,0,1,.26.08.4.4,0,0,1,.09.14L163,60.68l1.08-5a.34.34,0,0,1,.13-.22.33.33,0,0,1,.23-.09h1.24a.23.23,0,0,1,.2.09.24.24,0,0,1,0,.22l-1.68,7.94a.42.42,0,0,1-.13.22.35.35,0,0,1-.23.09h-1.11a.29.29,0,0,1-.25-.09.61.61,0,0,1-.09-.13l-2.21-5-1,4.9a.38.38,0,0,1-.37.31Z"/><path class="cls-2" d="M168.94,64a3.35,3.35,0,0,1-1.6-.34,1.89,1.89,0,0,1-.91-1,2.55,2.55,0,0,1-.13-1.45,3.39,3.39,0,0,1,.09-.56,5.25,5.25,0,0,1,.14-.54,4.18,4.18,0,0,1,.68-1.46,3,3,0,0,1,1.2-.95,4.06,4.06,0,0,1,1.74-.34,3.32,3.32,0,0,1,1.58.34,2,2,0,0,1,.93.95,2.41,2.41,0,0,1,.14,1.46c0,.16-.06.34-.11.54s-.08.4-.12.56a4.22,4.22,0,0,1-.68,1.45,2.86,2.86,0,0,1-1.18,1A4.14,4.14,0,0,1,168.94,64Zm.14-1.34a1.45,1.45,0,0,0,1-.38,2.15,2.15,0,0,0,.58-1.09,4.4,4.4,0,0,0,.12-.49,3.27,3.27,0,0,0,.09-.49,1.71,1.71,0,0,0-.08-1.09.84.84,0,0,0-.81-.37,1.41,1.41,0,0,0-1,.37,2.24,2.24,0,0,0-.59,1.09c0,.12-.07.29-.11.49s-.08.37-.1.49a1.77,1.77,0,0,0,.08,1.09A.83.83,0,0,0,169.08,62.66Z"/><path class="cls-2" d="M173.78,63.88a.25.25,0,0,1-.2-.09.26.26,0,0,1-.05-.22l1.22-5.74a.41.41,0,0,1,.14-.21.32.32,0,0,1,.23-.1h1.2a.22.22,0,0,1,.19.1.25.25,0,0,1,0,.21l-.1.49a2.1,2.1,0,0,1,.74-.58,2.56,2.56,0,0,1,1.1-.22h.64a.21.21,0,0,1,.19.09.27.27,0,0,1,0,.22l-.24,1.05a.37.37,0,0,1-.12.22.35.35,0,0,1-.23.09h-1.06a1.42,1.42,0,0,0-.91.29,1.51,1.51,0,0,0-.49.85l-.69,3.24a.38.38,0,0,1-.37.31Z"/><path class="cls-2" d="M182.48,63.88a3.09,3.09,0,0,1-1.33-.25,1.29,1.29,0,0,1-.67-.78,2.65,2.65,0,0,1,0-1.32L181,59h-1a.24.24,0,0,1-.2-.09.27.27,0,0,1,0-.22l.17-.83a.41.41,0,0,1,.37-.31h1l.43-2a.38.38,0,0,1,.37-.31h1.2a.25.25,0,0,1,.24.31l-.44,2h1.53a.21.21,0,0,1,.19.09.27.27,0,0,1,0,.22l-.17.83a.38.38,0,0,1-.13.22.36.36,0,0,1-.24.09h-1.53l-.51,2.42a4.09,4.09,0,0,0-.07.53.42.42,0,0,0,.13.34.63.63,0,0,0,.44.11h.93a.22.22,0,0,1,.19.09.25.25,0,0,1,0,.21l-.19.9a.4.4,0,0,1-.12.22.36.36,0,0,1-.24.09Z"/><path class="cls-2" d="M187.51,64a3.1,3.1,0,0,1-1.54-.35,1.78,1.78,0,0,1-.85-1,3.31,3.31,0,0,1-.06-1.68l.05-.26a1.83,1.83,0,0,1,.07-.26,4.5,4.5,0,0,1,.76-1.62,3.52,3.52,0,0,1,1.29-1,3.9,3.9,0,0,1,1.68-.36,2.78,2.78,0,0,1,1.62.42,2,2,0,0,1,.78,1.15,3.61,3.61,0,0,1,0,1.67l0,.28a.41.41,0,0,1-.14.21.35.35,0,0,1-.24.08h-4v0s0,0,0,.05a2.17,2.17,0,0,0,0,.72.83.83,0,0,0,.88.71,1.56,1.56,0,0,0,.51-.08,1.44,1.44,0,0,0,.37-.21,1.36,1.36,0,0,0,.24-.21.84.84,0,0,1,.21-.15.61.61,0,0,1,.22,0h1.27a.24.24,0,0,1,.18.06.2.2,0,0,1,0,.19,1.23,1.23,0,0,1-.3.49,3.08,3.08,0,0,1-.68.56,4.51,4.51,0,0,1-1,.46A4.28,4.28,0,0,1,187.51,64Zm-.36-3.9h2.39v0a1.46,1.46,0,0,0,0-.77.84.84,0,0,0-.31-.5.91.91,0,0,0-.61-.19,1.22,1.22,0,0,0-.68.19,1.44,1.44,0,0,0-.51.5,2.44,2.44,0,0,0-.31.77Z"/></svg>