<svg id="Layer_1" data-name="Layer 1" xmlns="http://www.w3.org/2000/svg" width="201.43" height="68" viewBox="0 0 201.43 68"><defs><style>.cls-1{fill:#4c8c1e;}.cls-2{fill:#666;}</style></defs><path class="cls-1" d="M36.37,33.2c0-11.69,5.7-21.8,22.67-21.8,0,11.71-7.7,21.8-22.67,21.8"/><path class="cls-1" d="M63.55,63.88a22.18,22.18,0,0,0,8.13-1.38c0-9.24-5.51-15.85-15.26-20.61a57.61,57.61,0,0,0-25-5.68c3.67-11,1-24.7-2.57-32.21-3.94,7.87-6.4,21.35-2.61,32.32-7.44.55-13.34,3.78-15.83,8.06-.19.32-.57,1-.34,1.13s.47-.19.64-.35a14.29,14.29,0,0,1,9.66-3.7c7.9,0,13.47,6.55,17.41,10.48,8.46,8.46,16.73,12,25.77,11.94"/><path d="M96.16,20.45l-4.11,2.11a1.72,1.72,0,0,1-.62.26c-.16,0-.31-.11-.41-.36-.93-2.21-2.27-3-3.65-3H84a3.76,3.76,0,0,0-3.7,3.7V38.35a3.76,3.76,0,0,0,3.7,3.7h2.52a3.64,3.64,0,0,0,3.65-3.7V35.93c0-.36-.15-.51-.51-.51H84.79c-.36,0-.51-.16-.51-.52V30.53c0-.36.15-.51.51-.51H95.54c.36,0,.52.15.52.51v7.82c0,5.35-3.76,9.1-9.57,9.1H84c-5.86,0-9.56-3.75-9.56-9.1V23.12c0-5.34,3.7-9.1,9.56-9.1h3.4c4.26,0,6.58,1.75,8.12,4.17a7.37,7.37,0,0,1,1,1.9C96.47,20.25,96.37,20.35,96.16,20.45Z"/><path d="M112.51,46.94H100.94c-.36,0-.51-.16-.51-.52V15.05c0-.36.15-.51.51-.51h11.57c5.87,0,9.57,3.75,9.57,9.56v.52a8.52,8.52,0,0,1-2.73,5.55.42.42,0,0,0,0,.72,9.13,9.13,0,0,1,2.73,5.81v.77C122.08,43.29,118.38,46.94,112.51,46.94Zm3.71-23.3a3.75,3.75,0,0,0-3.71-3.7h-5.65c-.36,0-.52.15-.52.51v6.84c0,.36.16.51.52.51h5.65a3.75,3.75,0,0,0,3.71-3.7Zm0,13.22a3.65,3.65,0,0,0-3.71-3.65h-5.65c-.36,0-.52.15-.52.51V41c0,.36.16.52.52.52h5.65a3.7,3.7,0,0,0,3.71-3.71Z"/><path d="M132.37,46.94h-4.89c-.36,0-.51-.16-.51-.52V15.05c0-.36.15-.51.51-.51h4.89c.36,0,.51.15.51.51V46.42C132.88,46.78,132.73,46.94,132.37,46.94Z"/><path d="M158,19.94H145.79c-.36,0-.51.15-.51.51v6.84c0,.36.15.51.51.51h10c.36,0,.51.16.51.52v4.37c0,.36-.15.52-.51.52h-10c-.36,0-.51.15-.51.51v12.7c0,.36-.16.52-.52.52h-4.88c-.36,0-.52-.16-.52-.52V15.05c0-.36.16-.51.52-.51H158c.36,0,.51.15.51.51v4.37C158.54,19.78,158.39,19.94,158,19.94Z"/><path class="cls-2" d="M83.57,63.88a.25.25,0,0,1-.24-.31L85,55.63a.38.38,0,0,1,.13-.22.36.36,0,0,1,.24-.09h1.1a.37.37,0,0,1,.26.08.34.34,0,0,1,.08.14L89,60.68l1.07-5a.38.38,0,0,1,.13-.22.36.36,0,0,1,.24-.09h1.24a.25.25,0,0,1,.2.09.27.27,0,0,1,0,.22l-1.69,7.94a.4.4,0,0,1-.12.22.35.35,0,0,1-.23.09H88.78a.29.29,0,0,1-.25-.09.38.38,0,0,1-.09-.13l-2.22-5-1,4.9a.3.3,0,0,1-.12.22.36.36,0,0,1-.24.09Z"/><path class="cls-2" d="M95,64a3.34,3.34,0,0,1-1.59-.34,1.89,1.89,0,0,1-.91-1,2.55,2.55,0,0,1-.13-1.45,3.39,3.39,0,0,1,.09-.56,5.25,5.25,0,0,1,.14-.54,4,4,0,0,1,.68-1.46,3,3,0,0,1,1.2-.95,4,4,0,0,1,1.73-.34,3.34,3.34,0,0,1,1.59.34,2.08,2.08,0,0,1,.93.95,2.49,2.49,0,0,1,.14,1.46c0,.16-.06.34-.11.54s-.09.4-.13.56a4.2,4.2,0,0,1-.67,1.45,2.92,2.92,0,0,1-1.18,1A4.16,4.16,0,0,1,95,64Zm.15-1.34a1.45,1.45,0,0,0,1-.38,2.22,2.22,0,0,0,.58-1.09l.12-.49c0-.2.07-.37.09-.49a1.7,1.7,0,0,0-.09-1.09.82.82,0,0,0-.8-.37,1.39,1.39,0,0,0-1,.37,2.24,2.24,0,0,0-.59,1.09l-.12.49c0,.2-.07.37-.09.49a1.77,1.77,0,0,0,.08,1.09A.83.83,0,0,0,95.1,62.66Z"/><path class="cls-2" d="M99.79,63.88a.25.25,0,0,1-.24-.31l1.22-5.74a.36.36,0,0,1,.14-.21.32.32,0,0,1,.23-.1h1.2a.22.22,0,0,1,.19.1.3.3,0,0,1,0,.21l-.1.49a2,2,0,0,1,.74-.58,2.55,2.55,0,0,1,1.09-.22H105a.22.22,0,0,1,.19.09.27.27,0,0,1,0,.22L105,58.88a.38.38,0,0,1-.13.22.33.33,0,0,1-.22.09h-1.07a1.44,1.44,0,0,0-.91.29,1.49,1.49,0,0,0-.48.85l-.7,3.24a.34.34,0,0,1-.12.22.36.36,0,0,1-.24.09Z"/><path class="cls-2" d="M108.5,63.88a3.06,3.06,0,0,1-1.33-.25,1.26,1.26,0,0,1-.67-.78,2.65,2.65,0,0,1,0-1.32l.55-2.56h-1a.23.23,0,0,1-.2-.09.27.27,0,0,1,0-.22l.17-.83a.34.34,0,0,1,.13-.22.38.38,0,0,1,.24-.09h1l.43-2a.32.32,0,0,1,.13-.22.35.35,0,0,1,.23-.09h1.2a.25.25,0,0,1,.2.09.26.26,0,0,1,0,.22l-.44,2h1.52a.23.23,0,0,1,.2.09.31.31,0,0,1,0,.22l-.17.83a.38.38,0,0,1-.13.22.36.36,0,0,1-.24.09h-1.53l-.51,2.42a2.87,2.87,0,0,0-.07.53.45.45,0,0,0,.12.34.68.68,0,0,0,.45.11h.93a.23.23,0,0,1,.19.09.25.25,0,0,1,0,.21l-.2.9a.3.3,0,0,1-.12.22.32.32,0,0,1-.23.09Z"/><path class="cls-2" d="M111.17,63.88a.22.22,0,0,1-.19-.09.23.23,0,0,1,0-.22l1.72-8.06a.36.36,0,0,1,.13-.22.33.33,0,0,1,.22-.09h1.32a.26.26,0,0,1,.21.09.3.3,0,0,1,0,.22L114,58.26a3.13,3.13,0,0,1,.86-.63A2.74,2.74,0,0,1,116,57.4a2.33,2.33,0,0,1,1.29.33,1.66,1.66,0,0,1,.71.94,3,3,0,0,1,0,1.49l-.73,3.41a.36.36,0,0,1-.13.22.33.33,0,0,1-.23.09h-1.33a.24.24,0,0,1-.2-.09.26.26,0,0,1,0-.22l.71-3.33a1.48,1.48,0,0,0-.07-1,.83.83,0,0,0-.8-.36,1.64,1.64,0,0,0-.72.16,1.57,1.57,0,0,0-.57.46,1.85,1.85,0,0,0-.34.75l-.7,3.33a.36.36,0,0,1-.13.22.32.32,0,0,1-.23.09Z"/><path class="cls-2" d="M121,63.88a.21.21,0,0,1-.21-.12.28.28,0,0,1,0-.25l4.57-7.86a.87.87,0,0,1,.2-.23.54.54,0,0,1,.33-.1h1.64a.38.38,0,0,1,.28.1.39.39,0,0,1,.09.23l1.25,7.86a.3.3,0,0,1-.06.27.27.27,0,0,1-.22.1h-1.25a.3.3,0,0,1-.25-.09.44.44,0,0,1-.1-.19L127,62.26H123.6l-.82,1.37a.64.64,0,0,1-.16.17.41.41,0,0,1-.27.08Zm3.39-3.19h2.53l-.52-3.52Z"/><path class="cls-2" d="M130.43,63.88a.24.24,0,0,1-.2-.09.23.23,0,0,1,0-.22l1.22-5.74a.41.41,0,0,1,.37-.31h1.14a.23.23,0,0,1,.19.09.31.31,0,0,1,0,.22l-.09.41a6.14,6.14,0,0,1,.47-.42,2.51,2.51,0,0,1,.59-.3,2.34,2.34,0,0,1,.79-.12,2.08,2.08,0,0,1,1.15.28,1.42,1.42,0,0,1,.62.8,3.15,3.15,0,0,1,.89-.78,2.26,2.26,0,0,1,1.19-.3,2.13,2.13,0,0,1,1.13.29,1.53,1.53,0,0,1,.68.88,2.85,2.85,0,0,1,0,1.52l-.75,3.48a.32.32,0,0,1-.13.22.33.33,0,0,1-.22.09h-1.21a.25.25,0,0,1-.2-.09.26.26,0,0,1-.05-.22l.74-3.38a2.18,2.18,0,0,0,0-.79.65.65,0,0,0-.27-.41.93.93,0,0,0-.5-.12,1.34,1.34,0,0,0-.52.12,1.31,1.31,0,0,0-.51.41,1.64,1.64,0,0,0-.33.79l-.74,3.38a.34.34,0,0,1-.12.22.33.33,0,0,1-.23.09h-1.2a.23.23,0,0,1-.2-.09.23.23,0,0,1,0-.22l.72-3.38a1.81,1.81,0,0,0,0-.79.65.65,0,0,0-.27-.41,1,1,0,0,0-.48-.12,1.22,1.22,0,0,0-.54.13,1.31,1.31,0,0,0-.51.41,1.9,1.9,0,0,0-.34.77L132,63.57a.34.34,0,0,1-.12.22.35.35,0,0,1-.23.09Z"/><path class="cls-2" d="M144.26,64a3.15,3.15,0,0,1-1.55-.35,1.78,1.78,0,0,1-.85-1,3.43,3.43,0,0,1-.06-1.68,2.43,2.43,0,0,0,0-.26,1.83,1.83,0,0,1,.07-.26,4.5,4.5,0,0,1,.76-1.62,3.52,3.52,0,0,1,1.29-1,3.9,3.9,0,0,1,1.68-.36,2.78,2.78,0,0,1,1.62.42,2,2,0,0,1,.79,1.15,3.61,3.61,0,0,1,0,1.67l-.05.28a.36.36,0,0,1-.14.21.35.35,0,0,1-.24.08h-4v0s0,0,0,.05a2.17,2.17,0,0,0,0,.72.9.9,0,0,0,.29.52.87.87,0,0,0,.59.19,1.56,1.56,0,0,0,.51-.08,1.71,1.71,0,0,0,.38-.21,1.69,1.69,0,0,0,.23-.21.84.84,0,0,1,.21-.15.61.61,0,0,1,.22,0h1.27a.29.29,0,0,1,.19.06.2.2,0,0,1,0,.19,1.23,1.23,0,0,1-.3.49,3.08,3.08,0,0,1-.68.56,4.51,4.51,0,0,1-1,.46A4.26,4.26,0,0,1,144.26,64Zm-.37-3.9h2.39v0a1.46,1.46,0,0,0,0-.77.84.84,0,0,0-.31-.5.91.91,0,0,0-.61-.19,1.22,1.22,0,0,0-.68.19,1.44,1.44,0,0,0-.51.5,2.7,2.7,0,0,0-.31.77Z"/><path class="cls-2" d="M149,63.88a.25.25,0,0,1-.2-.09.26.26,0,0,1-.05-.22L150,57.83a.34.34,0,0,1,.13-.21.32.32,0,0,1,.23-.1h1.2a.22.22,0,0,1,.19.1.25.25,0,0,1,0,.21l-.1.49a2.1,2.1,0,0,1,.74-.58,2.56,2.56,0,0,1,1.1-.22h.64a.21.21,0,0,1,.19.09.27.27,0,0,1,.05.22l-.24,1.05a.32.32,0,0,1-.12.22.35.35,0,0,1-.23.09h-1.06a1.42,1.42,0,0,0-.91.29,1.56,1.56,0,0,0-.49.85l-.69,3.24a.38.38,0,0,1-.37.31Z"/><path class="cls-2" d="M154.45,63.88a.25.25,0,0,1-.24-.31l1.22-5.74a.41.41,0,0,1,.37-.31H157a.24.24,0,0,1,.2.09.27.27,0,0,1,0,.22L156,63.57a.4.4,0,0,1-.12.22.33.33,0,0,1-.23.09ZM156,56.55a.23.23,0,0,1-.2-.09.24.24,0,0,1,0-.22l.2-1a.38.38,0,0,1,.13-.22.36.36,0,0,1,.24-.09h1.28a.26.26,0,0,1,.21.09.31.31,0,0,1,0,.22l-.22,1a.32.32,0,0,1-.12.22.38.38,0,0,1-.24.09Z"/><path class="cls-2" d="M160.54,64a3.19,3.19,0,0,1-1.48-.33,2.08,2.08,0,0,1-.94-1A2.48,2.48,0,0,1,158,61.2c0-.13.06-.29.1-.49s.08-.37.11-.5a3.7,3.7,0,0,1,1.25-2.07,3.62,3.62,0,0,1,2.32-.74,3.45,3.45,0,0,1,1.33.23,2.5,2.5,0,0,1,.85.58,2,2,0,0,1,.44.72,1.8,1.8,0,0,1,.08.66.36.36,0,0,1-.11.22.32.32,0,0,1-.22.08h-1.34a.24.24,0,0,1-.18-.06.31.31,0,0,1-.1-.19.79.79,0,0,0-.23-.63,1,1,0,0,0-.66-.19,1.48,1.48,0,0,0-1,.35,2.11,2.11,0,0,0-.59,1.1c0,.16-.08.31-.11.46a3.92,3.92,0,0,0-.07.41,1.67,1.67,0,0,0,.09,1.1.82.82,0,0,0,.76.34,1.55,1.55,0,0,0,.76-.18,1.45,1.45,0,0,0,.56-.61.69.69,0,0,1,.15-.2.38.38,0,0,1,.22-.06h1.32a.24.24,0,0,1,.2.09.28.28,0,0,1,0,.22,2.63,2.63,0,0,1-.3.62,3,3,0,0,1-.64.72,3.34,3.34,0,0,1-1,.59A4.28,4.28,0,0,1,160.54,64Z"/><path class="cls-2" d="M167.34,64a2.64,2.64,0,0,1-1.06-.2,1.62,1.62,0,0,1-.7-.59,2.16,2.16,0,0,1-.34-.91,3.94,3.94,0,0,1,0-1.18c0-.16,0-.3.08-.43s.06-.26.09-.4a5.56,5.56,0,0,1,.43-1.17,3.6,3.6,0,0,1,.66-.91,2.8,2.8,0,0,1,.91-.59,2.94,2.94,0,0,1,1.17-.22,2.39,2.39,0,0,1,1.15.23,1.81,1.81,0,0,1,.61.55l.07-.35a.38.38,0,0,1,.13-.22.33.33,0,0,1,.22-.09H172a.25.25,0,0,1,.2.09.27.27,0,0,1,0,.22L171,63.57a.4.4,0,0,1-.12.22.36.36,0,0,1-.24.09h-1.16a.24.24,0,0,1-.2-.09.26.26,0,0,1,0-.22l.08-.41a3.56,3.56,0,0,1-.8.6A2.44,2.44,0,0,1,167.34,64Zm.69-1.47a1.52,1.52,0,0,0,.79-.2,1.79,1.79,0,0,0,.53-.53,2.76,2.76,0,0,0,.3-.68c0-.16.07-.31.11-.47s.06-.3.08-.45a1.72,1.72,0,0,0,0-.64.88.88,0,0,0-.29-.5,1,1,0,0,0-.66-.19,1.23,1.23,0,0,0-.73.2,1.52,1.52,0,0,0-.51.53,2.88,2.88,0,0,0-.3.72c0,.12-.07.25-.1.38a2.79,2.79,0,0,0-.07.38,2.94,2.94,0,0,0,0,.72.8.8,0,0,0,.24.53A.85.85,0,0,0,168,62.53Z"/></svg>