<svg id="Layer_1" data-name="Layer 1" xmlns="http://www.w3.org/2000/svg" width="201.43" height="68" viewBox="0 0 201.43 68"><defs><style>.cls-1{fill:#4c8c1e;}.cls-2{fill:#666;}.cls-3{fill:#fff;}</style></defs><path class="cls-1" d="M32,33.33c0-9.73,4.76-18.16,18.9-18.16,0,9.76-6.42,18.16-18.9,18.16"/><path class="cls-1" d="M54.63,58.9a18.55,18.55,0,0,0,6.77-1.15c0-7.7-4.59-13.21-12.71-17.18a48.19,48.19,0,0,0-20.84-4.73c3.06-9.18.83-20.58-2.14-26.84-3.28,6.56-5.34,17.79-2.18,26.94-6.2.45-11.11,3.15-13.19,6.71-.16.27-.47.85-.28,1s.39-.17.53-.3a11.89,11.89,0,0,1,8.05-3.09c6.58,0,11.23,5.46,14.51,8.74,7.05,7,13.94,10,21.48,9.95"/><path d="M81.8,22.71l-3.43,1.76a1.38,1.38,0,0,1-.51.21c-.13,0-.26-.09-.35-.3-.77-1.84-1.88-2.53-3-2.53H71.64a3.13,3.13,0,0,0-3.08,3.09V37.62a3.13,3.13,0,0,0,3.08,3.09h2.1a3,3,0,0,0,3.05-3.09v-2c0-.3-.13-.43-.43-.43h-4c-.3,0-.43-.13-.43-.43V31.11c0-.3.13-.43.43-.43h9c.3,0,.42.13.42.43v6.51c0,4.46-3.12,7.59-8,7.59h-2.1c-4.88,0-8-3.13-8-7.59V24.94c0-4.46,3.09-7.59,8-7.59h2.83c3.56,0,5.49,1.46,6.77,3.47a6.08,6.08,0,0,1,.82,1.59C82.06,22.54,82,22.62,81.8,22.71Z"/><path d="M95.43,44.78H85.79c-.3,0-.43-.13-.43-.43V18.21c0-.3.13-.43.43-.43h9.64c4.88,0,8,3.13,8,8v.43a7.13,7.13,0,0,1-2.27,4.63.35.35,0,0,0-.17.3.38.38,0,0,0,.17.3,7.66,7.66,0,0,1,2.27,4.84v.64C103.4,41.74,100.31,44.78,95.43,44.78Zm3.08-19.41a3.12,3.12,0,0,0-3.08-3.09H90.71c-.3,0-.42.13-.42.43v5.7c0,.3.12.43.42.43h4.72a3.13,3.13,0,0,0,3.08-3.09Zm0,11a3,3,0,0,0-3.08-3H90.71c-.3,0-.42.13-.42.43v6.08c0,.3.12.43.42.43h4.72a3.07,3.07,0,0,0,3.08-3.09Z"/><path d="M112,44.78H107.9c-.3,0-.43-.13-.43-.43V18.21c0-.3.13-.43.43-.43H112c.3,0,.43.13.43.43V44.35C112.4,44.65,112.27,44.78,112,44.78Z"/><path d="M133.36,22.28h-10.2c-.3,0-.43.13-.43.43v5.7c0,.3.13.43.43.43h8.36c.3,0,.42.13.42.43v3.64c0,.3-.12.43-.42.43h-8.36c-.3,0-.43.13-.43.43V44.35c0,.3-.13.43-.43.43h-4.07c-.3,0-.43-.13-.43-.43V18.21c0-.3.13-.43.43-.43h15.13c.3,0,.43.13.43.43v3.64C133.79,22.15,133.66,22.28,133.36,22.28Z"/><path class="cls-2" d="M71.31,58.9a.22.22,0,0,1-.16-.07.21.21,0,0,1,0-.19L72.51,52a.31.31,0,0,1,.31-.25h.91a.26.26,0,0,1,.22.07A.28.28,0,0,1,74,52l1.82,4.28.9-4.21a.32.32,0,0,1,.1-.18.31.31,0,0,1,.2-.07h1a.19.19,0,0,1,.17.07.19.19,0,0,1,0,.18l-1.4,6.62a.29.29,0,0,1-.11.18.27.27,0,0,1-.19.08h-.92a.29.29,0,0,1-.21-.07l-.08-.12-1.84-4.15-.87,4.08a.32.32,0,0,1-.1.19.37.37,0,0,1-.2.07Z"/><path class="cls-2" d="M80.8,59a2.79,2.79,0,0,1-1.33-.28,1.6,1.6,0,0,1-.76-.8,2.1,2.1,0,0,1-.11-1.21,2.87,2.87,0,0,1,.07-.46c0-.18.08-.33.12-.46a3.31,3.31,0,0,1,.57-1.21,2.54,2.54,0,0,1,1-.8,3.36,3.36,0,0,1,1.44-.28,2.75,2.75,0,0,1,1.32.28,1.68,1.68,0,0,1,.78.8A2,2,0,0,1,84,55.79c0,.13-.05.28-.08.46s-.08.32-.11.46a3.64,3.64,0,0,1-.56,1.21,2.44,2.44,0,0,1-1,.8A3.47,3.47,0,0,1,80.8,59Zm.12-1.12a1.16,1.16,0,0,0,.84-.31,1.77,1.77,0,0,0,.49-.91c0-.1.06-.24.1-.41a2.93,2.93,0,0,0,.07-.41,1.35,1.35,0,0,0-.07-.9.69.69,0,0,0-.67-.32,1.16,1.16,0,0,0-.83.32,1.78,1.78,0,0,0-.49.9c0,.11-.06.24-.1.41s-.06.31-.08.41a1.51,1.51,0,0,0,.07.91A.68.68,0,0,0,80.92,57.88Z"/><path class="cls-2" d="M84.83,58.9a.22.22,0,0,1-.16-.07.21.21,0,0,1,0-.19l1-4.78a.31.31,0,0,1,.12-.18A.29.29,0,0,1,86,53.6h1a.18.18,0,0,1,.15.08.22.22,0,0,1,0,.18l-.08.41a1.72,1.72,0,0,1,.61-.49,2.13,2.13,0,0,1,.92-.18h.54a.2.2,0,0,1,.15.07.24.24,0,0,1,0,.19l-.19.87a.33.33,0,0,1-.11.19.34.34,0,0,1-.19.07h-.89a1.11,1.11,0,0,0-.75.25,1.23,1.23,0,0,0-.41.71l-.58,2.69a.32.32,0,0,1-.1.19.37.37,0,0,1-.2.07Z"/><path class="cls-2" d="M92.08,58.9A2.5,2.5,0,0,1,91,58.69a1,1,0,0,1-.55-.65,2.24,2.24,0,0,1,0-1.1l.46-2.14h-.79a.19.19,0,0,1-.17-.07.21.21,0,0,1,0-.18l.15-.69a.29.29,0,0,1,.11-.19.34.34,0,0,1,.19-.07h.81l.35-1.68a.34.34,0,0,1,.11-.18.29.29,0,0,1,.2-.07h1a.2.2,0,0,1,.16.07.22.22,0,0,1,0,.18l-.37,1.68H93.9a.22.22,0,0,1,.16.07.29.29,0,0,1,0,.19l-.14.69a.28.28,0,0,1-.11.18.29.29,0,0,1-.2.07H92.37l-.43,2c0,.17,0,.32-.06.44a.35.35,0,0,0,.11.29.56.56,0,0,0,.37.1h.77a.19.19,0,0,1,.16.07.17.17,0,0,1,0,.17l-.16.75a.32.32,0,0,1-.1.19.32.32,0,0,1-.19.07Z"/><path class="cls-2" d="M94.31,58.9a.22.22,0,0,1-.16-.07.21.21,0,0,1,0-.19l1.43-6.72a.34.34,0,0,1,.11-.18.28.28,0,0,1,.19-.07h1.1a.18.18,0,0,1,.16.07.22.22,0,0,1,0,.18l-.49,2.29a2.65,2.65,0,0,1,.72-.52,2.3,2.3,0,0,1,.95-.19,2,2,0,0,1,1.08.27,1.36,1.36,0,0,1,.59.79,2.45,2.45,0,0,1,0,1.24l-.61,2.84a.29.29,0,0,1-.11.19.31.31,0,0,1-.18.07H98a.21.21,0,0,1-.17-.07.24.24,0,0,1,0-.19l.59-2.78a1.2,1.2,0,0,0-.05-.84.71.71,0,0,0-.67-.3,1.39,1.39,0,0,0-.6.14,1.22,1.22,0,0,0-.47.38,1.41,1.41,0,0,0-.28.62l-.6,2.78a.27.27,0,0,1-.1.19.32.32,0,0,1-.19.07Z"/><path class="cls-2" d="M102.5,58.9a.18.18,0,0,1-.17-.1.22.22,0,0,1,0-.21L106.15,52a.75.75,0,0,1,.17-.19.41.41,0,0,1,.27-.08H108a.33.33,0,0,1,.24.08.36.36,0,0,1,.08.19l1,6.55a.29.29,0,0,1,0,.23.26.26,0,0,1-.19.08h-1a.3.3,0,0,1-.22-.07.38.38,0,0,1-.08-.17l-.2-1.11h-2.87L104,58.69a.57.57,0,0,1-.13.14.31.31,0,0,1-.22.07Zm2.83-2.66h2.11L107,53.31Z"/><path class="cls-2" d="M110.35,58.9a.2.2,0,0,1-.2-.26l1-4.78a.29.29,0,0,1,.11-.19.37.37,0,0,1,.19-.07h1a.22.22,0,0,1,.16.07.24.24,0,0,1,0,.19l-.08.34c.13-.12.26-.24.4-.35a1.82,1.82,0,0,1,.48-.25,1.91,1.91,0,0,1,.66-.1,1.73,1.73,0,0,1,1,.24,1.19,1.19,0,0,1,.52.66,2.55,2.55,0,0,1,.74-.65,1.87,1.87,0,0,1,1-.25,1.81,1.81,0,0,1,.95.24,1.31,1.31,0,0,1,.56.73,2.56,2.56,0,0,1,0,1.27l-.62,2.9a.33.33,0,0,1-.11.19.34.34,0,0,1-.19.07h-1a.22.22,0,0,1-.16-.07.21.21,0,0,1,0-.19l.61-2.82a1.62,1.62,0,0,0,0-.65.54.54,0,0,0-.21-.35.87.87,0,0,0-.42-.1,1.26,1.26,0,0,0-.44.1,1.17,1.17,0,0,0-.43.35,1.39,1.39,0,0,0-.27.65l-.61,2.82a.39.39,0,0,1-.1.19.35.35,0,0,1-.2.07h-1a.2.2,0,0,1-.16-.07.24.24,0,0,1,0-.19l.6-2.82a1.48,1.48,0,0,0,0-.65.56.56,0,0,0-.23-.35.82.82,0,0,0-.4-.1,1.14,1.14,0,0,0-.45.11,1.21,1.21,0,0,0-.42.34,1.51,1.51,0,0,0-.28.64l-.6,2.83a.33.33,0,0,1-.11.19.34.34,0,0,1-.19.07Z"/><path class="cls-2" d="M121.88,59a2.62,2.62,0,0,1-1.29-.29,1.52,1.52,0,0,1-.71-.86,2.92,2.92,0,0,1,0-1.4,1.65,1.65,0,0,0,0-.21,1.49,1.49,0,0,1,.05-.22,3.68,3.68,0,0,1,.64-1.35,2.9,2.9,0,0,1,1.07-.87,3.23,3.23,0,0,1,1.4-.3,2.33,2.33,0,0,1,1.35.35,1.71,1.71,0,0,1,.66,1,3.24,3.24,0,0,1,0,1.39l0,.23a.36.36,0,0,1-.12.18.37.37,0,0,1-.2.07h-3.32a0,0,0,0,1,0,0,.07.07,0,0,1,0,0,2,2,0,0,0,0,.6.69.69,0,0,0,.24.43.71.71,0,0,0,.49.16,1.11,1.11,0,0,0,.43-.07,1.49,1.49,0,0,0,.31-.17,2,2,0,0,0,.2-.18.6.6,0,0,1,.17-.12.44.44,0,0,1,.19,0h1.06a.2.2,0,0,1,.15.06.15.15,0,0,1,0,.15,1.12,1.12,0,0,1-.25.41,2.85,2.85,0,0,1-.57.47,3.27,3.27,0,0,1-.84.38A3.59,3.59,0,0,1,121.88,59Zm-.31-3.25h2v0a1.42,1.42,0,0,0,0-.64.86.86,0,0,0-.26-.42.81.81,0,0,0-.51-.15,1.1,1.1,0,0,0-.57.15,1.43,1.43,0,0,0-.43.42,2.67,2.67,0,0,0-.26.64Z"/><path class="cls-2" d="M125.81,58.9a.2.2,0,0,1-.2-.26l1-4.78a.29.29,0,0,1,.11-.18.31.31,0,0,1,.19-.08h1a.19.19,0,0,1,.16.08.22.22,0,0,1,0,.18l-.09.41a1.75,1.75,0,0,1,.62-.49,2.08,2.08,0,0,1,.91-.18h.54a.22.22,0,0,1,.16.07.24.24,0,0,1,0,.19l-.2.87a.29.29,0,0,1-.11.19.31.31,0,0,1-.18.07h-.89a1.14,1.14,0,0,0-.76.25,1.22,1.22,0,0,0-.4.71l-.58,2.69a.29.29,0,0,1-.11.19.35.35,0,0,1-.2.07Z"/><path class="cls-2" d="M130.38,58.9a.22.22,0,0,1-.16-.07.21.21,0,0,1-.05-.19l1-4.78a.33.33,0,0,1,.11-.19.4.4,0,0,1,.2-.07h1a.2.2,0,0,1,.16.07.29.29,0,0,1,0,.19l-1,4.78a.32.32,0,0,1-.1.19.32.32,0,0,1-.19.07Zm1.27-6.11a.24.24,0,0,1-.17-.07.24.24,0,0,1,0-.19l.17-.81a.29.29,0,0,1,.11-.19.28.28,0,0,1,.2-.08H133a.18.18,0,0,1,.16.08.24.24,0,0,1,0,.19l-.18.81a.29.29,0,0,1-.11.19.34.34,0,0,1-.19.07Z"/><path class="cls-2" d="M135.45,59a2.59,2.59,0,0,1-1.23-.28,1.62,1.62,0,0,1-.78-.79,2.07,2.07,0,0,1-.13-1.26l.08-.41q0-.25.09-.42a3,3,0,0,1,1.05-1.72,3.32,3.32,0,0,1,3-.43,2.08,2.08,0,0,1,.71.49,1.72,1.72,0,0,1,.36.6,1.38,1.38,0,0,1,.07.54.27.27,0,0,1-.1.19.29.29,0,0,1-.18.07h-1.11a.25.25,0,0,1-.16,0,.34.34,0,0,1-.07-.17.69.69,0,0,0-.2-.51.82.82,0,0,0-.55-.17,1.19,1.19,0,0,0-.8.3,1.72,1.72,0,0,0-.49.91l-.09.39a2.45,2.45,0,0,0-.06.34,1.34,1.34,0,0,0,.07.91.7.7,0,0,0,.64.29,1.28,1.28,0,0,0,.63-.15,1.38,1.38,0,0,0,.47-.51.48.48,0,0,1,.13-.17.3.3,0,0,1,.18-.05h1.1a.18.18,0,0,1,.16.08.19.19,0,0,1,0,.18,2.62,2.62,0,0,1-.25.52,2.85,2.85,0,0,1-.53.6,2.94,2.94,0,0,1-.86.49A3.44,3.44,0,0,1,135.45,59Z"/><path class="cls-2" d="M141.11,59a2.16,2.16,0,0,1-.88-.17,1.27,1.27,0,0,1-.58-.49,1.69,1.69,0,0,1-.28-.76,3,3,0,0,1,0-1,2.7,2.7,0,0,1,.07-.35c0-.11,0-.22.07-.35a4.55,4.55,0,0,1,.36-1,2.85,2.85,0,0,1,.55-.76,2.28,2.28,0,0,1,.76-.5,2.5,2.5,0,0,1,1-.18,1.92,1.92,0,0,1,1,.19,1.53,1.53,0,0,1,.51.46l.06-.29a.29.29,0,0,1,.11-.19.32.32,0,0,1,.19-.07h1a.22.22,0,0,1,.17.07.24.24,0,0,1,0,.19l-1,4.78a.39.39,0,0,1-.1.19.35.35,0,0,1-.2.07h-1a.21.21,0,0,1-.17-.07.24.24,0,0,1,0-.19l.07-.34a2.72,2.72,0,0,1-.67.5A2.06,2.06,0,0,1,141.11,59Zm.58-1.22a1.16,1.16,0,0,0,.66-.18,1.39,1.39,0,0,0,.44-.43,2.41,2.41,0,0,0,.25-.57l.09-.39c0-.13.05-.25.07-.38a1.18,1.18,0,0,0,0-.53.64.64,0,0,0-.24-.41.8.8,0,0,0-.55-.17,1.09,1.09,0,0,0-.61.17,1.36,1.36,0,0,0-.42.44,2.55,2.55,0,0,0-.26.61c0,.1-.05.2-.08.31a1.8,1.8,0,0,0-.06.32,2.42,2.42,0,0,0,0,.6.66.66,0,0,0,.19.44A.77.77,0,0,0,141.69,57.78Z"/><rect class="cls-3" x="-12" y="-8" width="213.43" height="8"/><rect class="cls-3" x="-12" y="68" width="227.58" height="8"/></svg>