<svg id="Layer_1" data-name="Layer 1" xmlns="http://www.w3.org/2000/svg" width="201.43" height="68" viewBox="0 0 201.43 68"><defs><style>.cls-1{fill:#4c8c1e;}.cls-2{fill:#666;}</style></defs><path class="cls-1" d="M32,33.38c0-9.75,4.76-18.2,18.93-18.2C51,25,44.52,33.38,32,33.38"/><path class="cls-1" d="M54.72,59a18.7,18.7,0,0,0,6.79-1.15c0-7.72-4.61-13.24-12.74-17.21A48.05,48.05,0,0,0,27.89,35.9C31,26.69,28.72,15.27,25.74,9c-3.29,6.57-5.34,17.83-2.18,27-6.21.45-11.13,3.16-13.22,6.73-.16.27-.47.85-.28,1s.39-.17.54-.3a11.9,11.9,0,0,1,8.06-3.09c6.59,0,11.25,5.47,14.53,8.76,7.07,7.06,14,10,21.53,10"/><path d="M82,22.74,78.51,24.5a1.38,1.38,0,0,1-.51.21c-.13,0-.26-.08-.35-.3-.77-1.84-1.89-2.53-3.05-2.53H71.77A3.14,3.14,0,0,0,68.68,25V37.68a3.13,3.13,0,0,0,3.09,3.09h2.1a3,3,0,0,0,3-3.09v-2c0-.3-.13-.43-.43-.43h-4c-.3,0-.43-.12-.43-.42V31.15c0-.3.13-.42.43-.42h9c.3,0,.43.12.43.42v6.53c0,4.47-3.13,7.6-8,7.6h-2.1c-4.9,0-8-3.13-8-7.6V25c0-4.47,3.09-7.6,8-7.6H74.6c3.57,0,5.5,1.46,6.79,3.48a5.93,5.93,0,0,1,.82,1.59C82.21,22.57,82.12,22.65,82,22.74Z"/><path d="M95.61,44.85H85.94c-.3,0-.43-.12-.43-.43V18.23c0-.3.13-.43.43-.43h9.67c4.89,0,8,3.13,8,8v.43a7.16,7.16,0,0,1-2.27,4.63.36.36,0,0,0,0,.61,7.66,7.66,0,0,1,2.27,4.85V37C103.59,41.81,100.5,44.85,95.61,44.85ZM98.7,25.4a3.14,3.14,0,0,0-3.09-3.09H90.88c-.3,0-.43.13-.43.43v5.71c0,.3.13.43.43.43h4.73a3.14,3.14,0,0,0,3.09-3.09Zm0,11a3,3,0,0,0-3.09-3H90.88c-.3,0-.43.13-.43.43v6.1c0,.3.13.42.43.42h4.73a3.08,3.08,0,0,0,3.09-3.09Z"/><path d="M112.18,44.85H108.1c-.3,0-.43-.12-.43-.43V18.23c0-.3.13-.43.43-.43h4.08c.3,0,.43.13.43.43V44.42C112.61,44.73,112.48,44.85,112.18,44.85Z"/><path d="M133.61,22.31H123.39c-.3,0-.43.13-.43.43v5.71c0,.3.13.43.43.43h8.38c.3,0,.43.13.43.43V33c0,.3-.13.43-.43.43h-8.38c-.3,0-.43.13-.43.43v10.6c0,.31-.13.43-.43.43h-4.08c-.3,0-.43-.12-.43-.43V18.23c0-.3.13-.43.43-.43h15.16c.3,0,.43.13.43.43v3.65C134,22.18,133.91,22.31,133.61,22.31Z"/><path class="cls-2" d="M70.77,59a.15.15,0,0,1-.16-.1.18.18,0,0,1,0-.2l3.82-6.57a.58.58,0,0,1,.16-.19.47.47,0,0,1,.28-.08h1.36a.33.33,0,0,1,.24.08.33.33,0,0,1,.08.19l1,6.57a.26.26,0,0,1,0,.22.25.25,0,0,1-.18.08H76.32a.25.25,0,0,1-.21-.07.35.35,0,0,1-.08-.16l-.21-1.12H73l-.69,1.15a.8.8,0,0,1-.13.13.31.31,0,0,1-.22.07Zm2.84-2.66h2.11l-.44-2.94Z"/><path class="cls-2" d="M78.65,59a.22.22,0,0,1-.17-.07.22.22,0,0,1,0-.18l1-4.8a.34.34,0,0,1,.31-.25h1a.19.19,0,0,1,.16.07.21.21,0,0,1,0,.18l-.07.35a2.57,2.57,0,0,1,.39-.35,1.64,1.64,0,0,1,.49-.26,2.18,2.18,0,0,1,.66-.1,1.76,1.76,0,0,1,1,.24,1.21,1.21,0,0,1,.51.66,2.86,2.86,0,0,1,.74-.65,2,2,0,0,1,1-.25,1.84,1.84,0,0,1,1,.24,1.33,1.33,0,0,1,.56.74,2.44,2.44,0,0,1,0,1.27l-.63,2.91a.27.27,0,0,1-.1.18.28.28,0,0,1-.19.07h-1a.19.19,0,0,1-.16-.07.2.2,0,0,1,0-.18l.62-2.83a1.67,1.67,0,0,0,0-.66.53.53,0,0,0-.22-.34.77.77,0,0,0-.42-.1,1,1,0,0,0-.43.1,1.14,1.14,0,0,0-.43.34,1.55,1.55,0,0,0-.28.66l-.61,2.83a.32.32,0,0,1-.1.18.29.29,0,0,1-.2.07h-1a.18.18,0,0,1-.16-.07.22.22,0,0,1,0-.18l.6-2.83a1.53,1.53,0,0,0,0-.66.54.54,0,0,0-.23-.34.72.72,0,0,0-.4-.1,1.12,1.12,0,0,0-.45.1,1.16,1.16,0,0,0-.42.35,1.46,1.46,0,0,0-.28.64L80,58.75a.32.32,0,0,1-.1.18.28.28,0,0,1-.19.07Z"/><path class="cls-2" d="M90.2,59.1a2.51,2.51,0,0,1-1.29-.29A1.48,1.48,0,0,1,88.2,58a2.8,2.8,0,0,1,0-1.4s0-.13,0-.22a2.18,2.18,0,0,1,.06-.22,3.67,3.67,0,0,1,.64-1.35A2.75,2.75,0,0,1,90,53.89a3.23,3.23,0,0,1,1.4-.3,2.25,2.25,0,0,1,1.35.36,1.66,1.66,0,0,1,.66.95,3,3,0,0,1,0,1.4l0,.23a.29.29,0,0,1-.11.18.38.38,0,0,1-.21.07H89.69a.1.1,0,0,0,0,0,.43.43,0,0,1,0,0,1.51,1.51,0,0,0,0,.6.69.69,0,0,0,.24.43.71.71,0,0,0,.49.16,1.17,1.17,0,0,0,.74-.24,2,2,0,0,0,.2-.18.6.6,0,0,1,.17-.12.47.47,0,0,1,.19,0h1.06a.18.18,0,0,1,.15.06.15.15,0,0,1,0,.15,1.12,1.12,0,0,1-.25.41,3.07,3.07,0,0,1-.56.47,3.51,3.51,0,0,1-.85.38A3.59,3.59,0,0,1,90.2,59.1Zm-.31-3.25h2v0a1.42,1.42,0,0,0,0-.64.74.74,0,0,0-.77-.58,1,1,0,0,0-.58.16,1.21,1.21,0,0,0-.42.42,2.2,2.2,0,0,0-.26.64Zm1-2.92c-.11,0-.15,0-.13-.16a.25.25,0,0,1,.08-.14L92,51.58a1.45,1.45,0,0,1,.21-.16.58.58,0,0,1,.21,0h1.17c.12,0,.17.06.16.18a.19.19,0,0,1-.08.15l-1.54,1.07-.18.1a.51.51,0,0,1-.22,0Z"/><path class="cls-2" d="M94.14,59a.19.19,0,0,1-.16-.07.19.19,0,0,1,0-.18L95,54a.29.29,0,0,1,.11-.18.28.28,0,0,1,.19-.07h1a.19.19,0,0,1,.16.07.22.22,0,0,1,0,.18l-.08.41a1.64,1.64,0,0,1,.61-.49,2.1,2.1,0,0,1,.92-.17h.54a.17.17,0,0,1,.15.07.21.21,0,0,1,0,.18l-.19.88a.34.34,0,0,1-.11.18.28.28,0,0,1-.19.07h-.89a1.2,1.2,0,0,0-.76.25,1.28,1.28,0,0,0-.4.71l-.58,2.71a.34.34,0,0,1-.11.18.29.29,0,0,1-.2.07Z"/><path class="cls-2" d="M98.71,59a.19.19,0,0,1-.16-.07.19.19,0,0,1,0-.18l1-4.8a.27.27,0,0,1,.11-.18.3.3,0,0,1,.19-.07h1a.19.19,0,0,1,.16.07.26.26,0,0,1,0,.18l-1,4.8a.32.32,0,0,1-.1.18.29.29,0,0,1-.2.07ZM100,52.88a.19.19,0,0,1-.17-.07.24.24,0,0,1,0-.19l.18-.81a.31.31,0,0,1,.3-.27h1.08a.18.18,0,0,1,.16.08.24.24,0,0,1,0,.19l-.18.81a.29.29,0,0,1-.11.19.28.28,0,0,1-.19.07Z"/><path class="cls-2" d="M104.74,60.94a.17.17,0,0,1-.15-.07.24.24,0,0,1,0-.19L105,58.4a2.21,2.21,0,0,1-.68.51,2,2,0,0,1-.9.19,2.07,2.07,0,0,1-.9-.17,1.53,1.53,0,0,1-.6-.49,1.93,1.93,0,0,1-.29-.75,2.83,2.83,0,0,1,0-1c0-.14,0-.27.07-.38l.09-.37a4.28,4.28,0,0,1,.54-1.26,2.52,2.52,0,0,1,.86-.83,2.36,2.36,0,0,1,1.21-.3,2,2,0,0,1,1,.21,1.33,1.33,0,0,1,.56.54l.08-.39a.27.27,0,0,1,.11-.18.29.29,0,0,1,.2-.07h1a.18.18,0,0,1,.16.07.26.26,0,0,1,0,.18l-1.42,6.73a.29.29,0,0,1-.11.19.31.31,0,0,1-.2.07Zm-.7-3.06a1.32,1.32,0,0,0,.64-.16,1.43,1.43,0,0,0,.46-.42,1.52,1.52,0,0,0,.25-.53l.09-.39c0-.13,0-.26.07-.38a1.82,1.82,0,0,0,0-.57.78.78,0,0,0-.23-.44.87.87,0,0,0-.58-.17,1,1,0,0,0-.62.17,1.29,1.29,0,0,0-.43.44,2.32,2.32,0,0,0-.26.6,3,3,0,0,0-.08.32c0,.11,0,.21,0,.31a2.13,2.13,0,0,0,0,.61.73.73,0,0,0,.21.44A.78.78,0,0,0,104,57.88Z"/><path class="cls-2" d="M109.88,59.1a1.91,1.91,0,0,1-1-.27,1.34,1.34,0,0,1-.57-.78,2.52,2.52,0,0,1,0-1.25l.6-2.85a.27.27,0,0,1,.11-.18.27.27,0,0,1,.2-.07h1.08a.19.19,0,0,1,.16.07.26.26,0,0,1,0,.18l-.59,2.79a1.81,1.81,0,0,0,0,.63.5.5,0,0,0,.21.38.94.94,0,0,0,.54.13,1.31,1.31,0,0,0,.86-.3,1.37,1.37,0,0,0,.48-.84l.59-2.79a.31.31,0,0,1,.11-.18.32.32,0,0,1,.2-.07h1.08a.18.18,0,0,1,.16.07.18.18,0,0,1,0,.18l-1,4.8a.27.27,0,0,1-.1.18.26.26,0,0,1-.19.07h-1a.19.19,0,0,1-.17-.07.22.22,0,0,1,0-.18l.08-.4a3.55,3.55,0,0,1-.46.41,1.93,1.93,0,0,1-.54.26A3.13,3.13,0,0,1,109.88,59.1Z"/><path class="cls-2" d="M116.83,59.1a2.51,2.51,0,0,1-1.29-.29,1.52,1.52,0,0,1-.71-.86,2.8,2.8,0,0,1,0-1.4s0-.13,0-.22a2.18,2.18,0,0,1,.06-.22,3.84,3.84,0,0,1,.64-1.35,2.82,2.82,0,0,1,1.07-.87,3.23,3.23,0,0,1,1.4-.3,2.23,2.23,0,0,1,1.35.36,1.66,1.66,0,0,1,.66.95,3,3,0,0,1,0,1.4l0,.23a.29.29,0,0,1-.11.18.37.37,0,0,1-.2.07h-3.33a0,0,0,0,1,0,0,.07.07,0,0,1,0,0,1.51,1.51,0,0,0,0,.6.69.69,0,0,0,.24.43.71.71,0,0,0,.49.16,1.11,1.11,0,0,0,.43-.07,1.14,1.14,0,0,0,.31-.17,2,2,0,0,0,.2-.18.77.77,0,0,1,.18-.12.42.42,0,0,1,.18,0h1.06a.18.18,0,0,1,.15.06s0,.09,0,.15a1,1,0,0,1-.25.41,2.77,2.77,0,0,1-.56.47,3.62,3.62,0,0,1-.84.38A3.71,3.71,0,0,1,116.83,59.1Zm-.31-3.25h2v0a1.42,1.42,0,0,0,0-.64.74.74,0,0,0-.77-.58,1,1,0,0,0-.57.16,1.32,1.32,0,0,0-.43.42,2.2,2.2,0,0,0-.26.64Z"/><path class="cls-2" d="M124.17,59.1a2.05,2.05,0,0,1-.89-.17,1.43,1.43,0,0,1-.6-.48,1.73,1.73,0,0,1-.28-.77,3.3,3.3,0,0,1,0-1c0-.12,0-.24.07-.35s0-.22.08-.34a4.64,4.64,0,0,1,.36-1,3,3,0,0,1,.55-.76,2.45,2.45,0,0,1,.76-.5,2.4,2.4,0,0,1,1-.18,2,2,0,0,1,.91.18,1.38,1.38,0,0,1,.56.47l.46-2.23a.34.34,0,0,1,.11-.18.28.28,0,0,1,.19-.07h1.05a.19.19,0,0,1,.17.07.22.22,0,0,1,0,.18l-1.43,6.74a.34.34,0,0,1-.11.18.29.29,0,0,1-.2.07h-1a.21.21,0,0,1-.17-.07.22.22,0,0,1,0-.18l.07-.35a2.78,2.78,0,0,1-.68.5A2,2,0,0,1,124.17,59.1Zm.58-1.22a1.24,1.24,0,0,0,.66-.17,1.63,1.63,0,0,0,.7-1c0-.12.07-.25.1-.38s.05-.26.07-.38a1.23,1.23,0,0,0,0-.54A.78.78,0,0,0,126,55a.83.83,0,0,0-.56-.16,1.07,1.07,0,0,0-.62.17,1.29,1.29,0,0,0-.43.44,2.32,2.32,0,0,0-.26.6,3,3,0,0,0-.08.32c0,.11,0,.21-.06.31a3.14,3.14,0,0,0,0,.61.68.68,0,0,0,.21.44A.78.78,0,0,0,124.75,57.88Z"/><path class="cls-2" d="M130.62,59.1a1.86,1.86,0,0,1-1.05-.27,1.4,1.4,0,0,1-.58-.78,2.64,2.64,0,0,1,0-1.25l.61-2.85a.29.29,0,0,1,.1-.18.31.31,0,0,1,.2-.07H131a.18.18,0,0,1,.16.07.21.21,0,0,1,0,.18l-.59,2.79a1.81,1.81,0,0,0,0,.63.5.5,0,0,0,.21.38.9.9,0,0,0,.54.13,1.33,1.33,0,0,0,.86-.3,1.47,1.47,0,0,0,.48-.84l.59-2.79a.27.27,0,0,1,.11-.18.31.31,0,0,1,.2-.07h1.08a.18.18,0,0,1,.16.07.26.26,0,0,1,0,.18l-1,4.8a.32.32,0,0,1-.1.18.29.29,0,0,1-.2.07h-1a.18.18,0,0,1-.16-.07.22.22,0,0,1,0-.18l.08-.4a4.36,4.36,0,0,1-.46.41,1.93,1.93,0,0,1-.54.26A3.13,3.13,0,0,1,130.62,59.1Z"/><path class="cls-2" d="M137.33,59a.19.19,0,0,1-.16-.07.19.19,0,0,1,0-.18l1.41-6.64a.32.32,0,0,1,.1-.18.31.31,0,0,1,.2-.07h.92a.25.25,0,0,1,.21.07.23.23,0,0,1,.08.11l1.82,4.29.9-4.22a.31.31,0,0,1,.31-.25h1a.21.21,0,0,1,.17.07.27.27,0,0,1,0,.18l-1.41,6.64a.33.33,0,0,1-.1.17.25.25,0,0,1-.19.08h-.93a.25.25,0,0,1-.21-.07l-.08-.11-1.84-4.17-.87,4.1a.34.34,0,0,1-.11.18.29.29,0,0,1-.2.07Z"/><path class="cls-2" d="M146.84,59.1a2.79,2.79,0,0,1-1.33-.28,1.58,1.58,0,0,1-.77-.8,2.28,2.28,0,0,1-.11-1.21c0-.14,0-.29.08-.47s.08-.32.12-.45a3.35,3.35,0,0,1,.57-1.22,2.63,2.63,0,0,1,1-.8,3.57,3.57,0,0,1,1.45-.28,2.93,2.93,0,0,1,1.32.28,1.7,1.7,0,0,1,.77.8,2,2,0,0,1,.12,1.22q0,.2-.09.45c0,.18-.07.33-.1.47a3.64,3.64,0,0,1-.56,1.21,2.49,2.49,0,0,1-1,.8A3.52,3.52,0,0,1,146.84,59.1ZM147,58a1.2,1.2,0,0,0,.85-.31,1.93,1.93,0,0,0,.49-.91c0-.11.06-.24.09-.41a3.56,3.56,0,0,0,.08-.41,1.45,1.45,0,0,0-.07-.91.71.71,0,0,0-.68-.31,1.16,1.16,0,0,0-.83.31,1.81,1.81,0,0,0-.49.91c0,.1-.06.24-.1.41s-.06.3-.08.41a1.51,1.51,0,0,0,.07.91A.69.69,0,0,0,147,58Z"/><path class="cls-2" d="M150.88,59a.19.19,0,0,1-.16-.07.2.2,0,0,1-.05-.18l1-4.8a.36.36,0,0,1,.12-.18.28.28,0,0,1,.19-.07h1a.19.19,0,0,1,.16.07.19.19,0,0,1,0,.18l-.08.41a1.75,1.75,0,0,1,.62-.49,2.08,2.08,0,0,1,.91-.17h.54a.18.18,0,0,1,.16.07.21.21,0,0,1,0,.18l-.2.88a.27.27,0,0,1-.1.18.28.28,0,0,1-.19.07H154a1.18,1.18,0,0,0-.76.25,1.28,1.28,0,0,0-.4.71l-.58,2.71a.34.34,0,0,1-.11.18.31.31,0,0,1-.2.07Z"/><path class="cls-2" d="M157.12,59.1a2.05,2.05,0,0,1-.89-.17,1.34,1.34,0,0,1-.59-.48,1.74,1.74,0,0,1-.29-.77,3.67,3.67,0,0,1,0-1c0-.12.06-.24.08-.35a2.73,2.73,0,0,1,.08-.34,4.64,4.64,0,0,1,.36-1,2.79,2.79,0,0,1,.55-.76,2.4,2.4,0,0,1,.75-.5,2.44,2.44,0,0,1,.95-.18,2.1,2.1,0,0,1,.92.18,1.35,1.35,0,0,1,.55.47l.47-2.23a.29.29,0,0,1,.11-.18.26.26,0,0,1,.19-.07h1a.18.18,0,0,1,.16.07.22.22,0,0,1,0,.18l-1.43,6.74a.29.29,0,0,1-.11.18.26.26,0,0,1-.19.07h-1a.18.18,0,0,1-.17-.07.22.22,0,0,1,0-.18l.07-.35a2.78,2.78,0,0,1-.68.5A2,2,0,0,1,157.12,59.1Zm.58-1.22a1.31,1.31,0,0,0,.67-.17,1.71,1.71,0,0,0,.45-.44,1.76,1.76,0,0,0,.25-.58l.09-.38c0-.13.05-.26.07-.38a1.23,1.23,0,0,0,0-.54A.77.77,0,0,0,159,55a.85.85,0,0,0-.56-.16,1.1,1.1,0,0,0-.63.17,1.26,1.26,0,0,0-.42.44,2.74,2.74,0,0,0-.27.6c0,.1,0,.21-.08.32s0,.21-.05.31a2.51,2.51,0,0,0,0,.61.68.68,0,0,0,.21.44A.75.75,0,0,0,157.7,57.88Z"/></svg>