<svg id="Layer_1" data-name="Layer 1" xmlns="http://www.w3.org/2000/svg" width="201.43" height="68" viewBox="0 0 201.43 68"><defs><style>.cls-1{fill:#4c8c1e;}.cls-2{fill:#666;}</style></defs><path class="cls-1" d="M35.44,32.17c0-11.27,5.5-21,21.86-21,0,11.3-7.43,21-21.86,21"/><path class="cls-1" d="M61.66,61.76a21.51,21.51,0,0,0,7.84-1.33c0-8.92-5.32-15.29-14.72-19.88a55.56,55.56,0,0,0-24.12-5.48c3.54-10.63,1-23.83-2.47-31.07C24.38,11.59,22,24.6,25.66,35.18,18.49,35.7,12.8,38.83,10.4,43c-.19.31-.55,1-.33,1.1s.45-.19.62-.35A13.77,13.77,0,0,1,20,40.13c7.61,0,13,6.32,16.78,10.12C45,58.41,52.93,61.78,61.66,61.76"/><path d="M93.11,19.87l-4,2a1.44,1.44,0,0,1-.59.25c-.15,0-.3-.1-.4-.35-.89-2.13-2.18-2.92-3.52-2.92H81.36a3.62,3.62,0,0,0-3.58,3.57V37.13a3.63,3.63,0,0,0,3.58,3.58h2.43a3.52,3.52,0,0,0,3.52-3.58V34.8c0-.35-.15-.49-.5-.49H82.15c-.35,0-.5-.15-.5-.5V29.59c0-.34.15-.49.5-.49H92.52c.35,0,.49.15.49.49v7.54c0,5.16-3.62,8.78-9.22,8.78H81.36c-5.66,0-9.23-3.62-9.23-8.78V22.45c0-5.16,3.57-8.78,9.23-8.78h3.27c4.12,0,6.35,1.68,7.84,4a7.11,7.11,0,0,1,.94,1.83C93.41,19.67,93.31,19.77,93.11,19.87Z"/><path d="M108.89,45.42H97.73c-.35,0-.5-.15-.5-.5V14.66c0-.35.15-.5.5-.5h11.16c5.66,0,9.23,3.63,9.23,9.23v.5a8.26,8.26,0,0,1-2.63,5.36.41.41,0,0,0-.2.34.43.43,0,0,0,.2.35,8.84,8.84,0,0,1,2.63,5.61v.74C118.12,41.9,114.55,45.42,108.89,45.42Zm3.57-22.48a3.62,3.62,0,0,0-3.57-3.57h-5.46c-.34,0-.49.15-.49.5v6.6c0,.34.15.49.49.49h5.46a3.62,3.62,0,0,0,3.57-3.57Zm0,12.75a3.52,3.52,0,0,0-3.57-3.52h-5.46c-.34,0-.49.15-.49.5v7c0,.35.15.5.49.5h5.46a3.56,3.56,0,0,0,3.57-3.57Z"/><path d="M128,45.42h-4.71c-.35,0-.5-.15-.5-.5V14.66c0-.35.15-.5.5-.5H128c.35,0,.5.15.5.5V44.92C128.54,45.27,128.39,45.42,128,45.42Z"/><path d="M152.8,19.37H141c-.35,0-.5.15-.5.5v6.6c0,.34.15.49.5.49h9.67c.35,0,.5.15.5.5v4.22c0,.34-.15.49-.5.49H141c-.35,0-.5.15-.5.5V44.92c0,.35-.15.5-.49.5h-4.72c-.34,0-.49-.15-.49-.5V14.66c0-.35.15-.5.49-.5H152.8c.34,0,.49.15.49.5v4.22C153.29,19.22,153.14,19.37,152.8,19.37Z"/><path class="cls-2" d="M80.2,61.76a.2.2,0,0,1-.19-.12.21.21,0,0,1,0-.23l4.41-7.58a.8.8,0,0,1,.18-.23.53.53,0,0,1,.32-.09h1.58a.34.34,0,0,1,.27.09.4.4,0,0,1,.1.23l1.2,7.58a.29.29,0,0,1-.06.26.26.26,0,0,1-.21.09h-1.2a.34.34,0,0,1-.25-.08.5.5,0,0,1-.1-.19L86,60.2H82.71l-.78,1.32a.81.81,0,0,1-.16.16.35.35,0,0,1-.26.08Zm3.28-3.08h2.44l-.51-3.39Z"/><path class="cls-2" d="M89.3,61.76a.23.23,0,0,1-.24-.29l1.18-5.54a.38.38,0,0,1,.13-.22.4.4,0,0,1,.23-.08h1.09a.26.26,0,0,1,.19.08.31.31,0,0,1,0,.22l-.09.4a4.36,4.36,0,0,1,.46-.41,2,2,0,0,1,.56-.29,2.2,2.2,0,0,1,.76-.12,2.09,2.09,0,0,1,1.12.27,1.38,1.38,0,0,1,.59.77,3.06,3.06,0,0,1,.86-.75,2.23,2.23,0,0,1,1.15-.29,2.1,2.1,0,0,1,1.09.28,1.51,1.51,0,0,1,.66.85,2.79,2.79,0,0,1,0,1.47l-.71,3.36a.39.39,0,0,1-.13.21.37.37,0,0,1-.22.08H96.86a.24.24,0,0,1-.19-.08.23.23,0,0,1,0-.21l.71-3.27a2,2,0,0,0,0-.76.59.59,0,0,0-.26-.39.85.85,0,0,0-.48-.12,1.31,1.31,0,0,0-1,.51,1.67,1.67,0,0,0-.32.76l-.71,3.27a.36.36,0,0,1-.11.21.38.38,0,0,1-.23.08H93.1a.25.25,0,0,1-.2-.08.25.25,0,0,1,0-.21l.7-3.27a1.67,1.67,0,0,0,0-.76.59.59,0,0,0-.26-.39.89.89,0,0,0-.47-.12,1.3,1.3,0,0,0-.52.12,1.4,1.4,0,0,0-.49.4,1.82,1.82,0,0,0-.32.74l-.7,3.28a.33.33,0,0,1-.12.21.37.37,0,0,1-.22.08Z"/><path class="cls-2" d="M102.64,61.88a2.93,2.93,0,0,1-1.49-.34,1.72,1.72,0,0,1-.82-1,3.3,3.3,0,0,1-.06-1.62,2.33,2.33,0,0,0,.06-.25,2.61,2.61,0,0,1,.06-.26,4.34,4.34,0,0,1,.74-1.56,3.32,3.32,0,0,1,1.23-1,3.85,3.85,0,0,1,1.63-.35,2.65,2.65,0,0,1,1.56.41,2,2,0,0,1,.76,1.11,3.63,3.63,0,0,1,0,1.61l0,.27a.37.37,0,0,1-.13.2.41.41,0,0,1-.24.08h-3.84v0s0,0,0,.05a2,2,0,0,0,0,.69.86.86,0,0,0,.28.51.85.85,0,0,0,.57.18,1.23,1.23,0,0,0,.49-.08,1.25,1.25,0,0,0,.36-.2,1.72,1.72,0,0,0,.23-.2.84.84,0,0,1,.2-.15.58.58,0,0,1,.21,0h1.23a.25.25,0,0,1,.18.07s0,.1,0,.18a1.27,1.27,0,0,1-.29.47,3.38,3.38,0,0,1-.65.54,4.13,4.13,0,0,1-2.22.62Zm-.35-3.76h2.31v0a1.53,1.53,0,0,0,0-.73.86.86,0,0,0-.3-.49.92.92,0,0,0-.59-.18,1.21,1.21,0,0,0-.66.18,1.44,1.44,0,0,0-.49.49,2.54,2.54,0,0,0-.3.73Zm1.18-3.37c-.13,0-.18-.07-.16-.19a.34.34,0,0,1,.1-.16l1.26-1.21a1.22,1.22,0,0,1,.24-.18.55.55,0,0,1,.24,0h1.36c.13,0,.19.07.17.21a.17.17,0,0,1-.09.16l-1.77,1.24a1,1,0,0,1-.22.13.82.82,0,0,1-.25,0Z"/><path class="cls-2" d="M107.2,61.76a.23.23,0,0,1-.24-.29l1.18-5.54a.39.39,0,0,1,.13-.21.33.33,0,0,1,.22-.09h1.16a.2.2,0,0,1,.18.09.25.25,0,0,1,0,.21l-.09.47a1.87,1.87,0,0,1,.71-.56,2.41,2.41,0,0,1,1.06-.21h.62a.22.22,0,0,1,.18.08.27.27,0,0,1,.05.22l-.23,1a.32.32,0,0,1-.12.21.32.32,0,0,1-.22.08h-1a1.32,1.32,0,0,0-.87.29,1.43,1.43,0,0,0-.47.82l-.67,3.13a.39.39,0,0,1-.13.21.36.36,0,0,1-.23.08Z"/><path class="cls-2" d="M112.48,61.76a.23.23,0,0,1-.24-.29l1.18-5.54a.38.38,0,0,1,.13-.22.4.4,0,0,1,.23-.08H115a.23.23,0,0,1,.19.08.31.31,0,0,1,0,.22L114,61.47a.45.45,0,0,1-.12.21.35.35,0,0,1-.22.08ZM114,54.69a.24.24,0,0,1-.19-.08.24.24,0,0,1,0-.22l.2-.94a.32.32,0,0,1,.12-.22.33.33,0,0,1,.23-.09h1.24a.22.22,0,0,1,.19.09.24.24,0,0,1,0,.22l-.21.94a.32.32,0,0,1-.12.22.37.37,0,0,1-.22.08Z"/><path class="cls-2" d="M119.45,64a.26.26,0,0,1-.19-.08.3.3,0,0,1,0-.21l.57-2.65a2.8,2.8,0,0,1-.79.6,2.25,2.25,0,0,1-1,.22,2.54,2.54,0,0,1-1-.2,1.69,1.69,0,0,1-.69-.57,2.11,2.11,0,0,1-.33-.87,3.21,3.21,0,0,1,0-1.11c0-.16,0-.3.08-.43s.07-.28.1-.43a5.27,5.27,0,0,1,.62-1.46,3,3,0,0,1,1-1,2.84,2.84,0,0,1,1.4-.34,2.31,2.31,0,0,1,1.11.24,1.53,1.53,0,0,1,.64.62l.1-.44a.32.32,0,0,1,.12-.22.38.38,0,0,1,.23-.08h1.12a.23.23,0,0,1,.19.08.27.27,0,0,1,0,.22L121,63.71a.39.39,0,0,1-.13.21.41.41,0,0,1-.24.08Zm-.82-3.54a1.51,1.51,0,0,0,.75-.18,1.81,1.81,0,0,0,.81-1.1c0-.15.07-.3.11-.45s0-.29.08-.44a1.83,1.83,0,0,0,0-.66.83.83,0,0,0-.93-.7,1.3,1.3,0,0,0-.73.19,1.59,1.59,0,0,0-.49.51,2.9,2.9,0,0,0-.3.7,2.22,2.22,0,0,0-.09.37c0,.12,0,.24-.07.36a2.77,2.77,0,0,0,0,.7.81.81,0,0,0,.23.51A.92.92,0,0,0,118.63,60.46Z"/><path class="cls-2" d="M125.38,61.88a2.3,2.3,0,0,1-1.22-.31,1.62,1.62,0,0,1-.66-.91,3,3,0,0,1,0-1.45l.69-3.28a.38.38,0,0,1,.13-.22.36.36,0,0,1,.23-.08h1.24a.26.26,0,0,1,.19.08.31.31,0,0,1,0,.22l-.68,3.21a2,2,0,0,0-.06.73.59.59,0,0,0,.24.45,1.2,1.2,0,0,0,.63.14,1.51,1.51,0,0,0,1-.34,1.65,1.65,0,0,0,.55-1l.69-3.21a.34.34,0,0,1,.13-.22.37.37,0,0,1,.22-.08H130a.23.23,0,0,1,.19.08.27.27,0,0,1,0,.22L129,61.47a.36.36,0,0,1-.11.21.38.38,0,0,1-.23.08h-1.15a.26.26,0,0,1-.2-.08.3.3,0,0,1,0-.21l.1-.46a5.66,5.66,0,0,1-.54.47,2.1,2.1,0,0,1-.62.3A3.59,3.59,0,0,1,125.38,61.88Z"/><path class="cls-2" d="M133.41,61.88a2.91,2.91,0,0,1-1.49-.34,1.72,1.72,0,0,1-.82-1,3.3,3.3,0,0,1-.06-1.62l.05-.25a1.2,1.2,0,0,1,.07-.26,4.32,4.32,0,0,1,.73-1.56,3.43,3.43,0,0,1,1.24-1,3.77,3.77,0,0,1,1.62-.35,2.65,2.65,0,0,1,1.56.41,1.9,1.9,0,0,1,.76,1.11,3.36,3.36,0,0,1,0,1.61l0,.27a.37.37,0,0,1-.13.2.41.41,0,0,1-.24.08h-3.84a.08.08,0,0,1,0,0,.08.08,0,0,1,0,.05,2.65,2.65,0,0,0,0,.69.92.92,0,0,0,.28.51.88.88,0,0,0,.57.18,1.28,1.28,0,0,0,.5-.08,1.25,1.25,0,0,0,.36-.2l.23-.2a.68.68,0,0,1,.2-.15.58.58,0,0,1,.21,0h1.23a.24.24,0,0,1,.17.07.18.18,0,0,1,0,.18,1.42,1.42,0,0,1-.29.47,3.18,3.18,0,0,1-.66.54,4,4,0,0,1-1,.44A4,4,0,0,1,133.41,61.88Zm-.36-3.76h2.31v0a1.53,1.53,0,0,0,0-.73.86.86,0,0,0-.3-.49.9.9,0,0,0-.59-.18,1.26,1.26,0,0,0-.66.18,1.53,1.53,0,0,0-.49.49,2.54,2.54,0,0,0-.3.73Z"/><path class="cls-2" d="M141.88,61.88a2.47,2.47,0,0,1-1-.2,1.59,1.59,0,0,1-.69-.56,2.06,2.06,0,0,1-.33-.89,3.9,3.9,0,0,1,0-1.13c0-.15.06-.29.09-.41s.05-.25.09-.4a5.2,5.2,0,0,1,.41-1.11,3.44,3.44,0,0,1,.64-.88,2.71,2.71,0,0,1,.87-.58,2.8,2.8,0,0,1,1.1-.21,2.38,2.38,0,0,1,1.06.21,1.57,1.57,0,0,1,.64.54l.54-2.57a.34.34,0,0,1,.34-.3h1.21a.25.25,0,0,1,.2.08.27.27,0,0,1,0,.22l-1.65,7.78a.45.45,0,0,1-.12.21.4.4,0,0,1-.23.08H144a.26.26,0,0,1-.2-.08.25.25,0,0,1,0-.21l.08-.41a3,3,0,0,1-.79.59A2.44,2.44,0,0,1,141.88,61.88Zm.67-1.42a1.36,1.36,0,0,0,.77-.2,1.66,1.66,0,0,0,.52-.5,1.93,1.93,0,0,0,.29-.66c0-.15.08-.3.11-.45s.06-.3.08-.44a1.3,1.3,0,0,0,0-.62.86.86,0,0,0-.29-.47,1,1,0,0,0-.65-.19,1.29,1.29,0,0,0-.72.19,1.62,1.62,0,0,0-.5.51,4,4,0,0,0-.3.7l-.09.37a2.25,2.25,0,0,0-.06.36,2.77,2.77,0,0,0,0,.7.87.87,0,0,0,.24.51A.89.89,0,0,0,142.55,60.46Z"/><path class="cls-2" d="M149.33,61.88a2.26,2.26,0,0,1-1.21-.31,1.62,1.62,0,0,1-.66-.91,3,3,0,0,1,0-1.45l.7-3.28a.32.32,0,0,1,.12-.22.38.38,0,0,1,.23-.08h1.25a.22.22,0,0,1,.18.08.24.24,0,0,1,0,.22l-.68,3.21a2.48,2.48,0,0,0-.06.73.64.64,0,0,0,.25.45,1.16,1.16,0,0,0,.62.14,1.51,1.51,0,0,0,1-.34,1.66,1.66,0,0,0,.56-1l.68-3.21a.38.38,0,0,1,.13-.22.4.4,0,0,1,.23-.08H154a.23.23,0,0,1,.19.08.31.31,0,0,1,0,.22L153,61.47a.45.45,0,0,1-.12.21.35.35,0,0,1-.22.08H151.5a.24.24,0,0,1-.19-.08.25.25,0,0,1,0-.21l.09-.46a4.58,4.58,0,0,1-.53.47,2.29,2.29,0,0,1-.63.3A3.47,3.47,0,0,1,149.33,61.88Z"/><path class="cls-2" d="M157.09,61.76a.22.22,0,0,1-.23-.29l1.62-7.67a.39.39,0,0,1,.13-.21.36.36,0,0,1,.23-.08h1.06a.31.31,0,0,1,.24.08.31.31,0,0,1,.09.13l2.11,5,1-4.87a.39.39,0,0,1,.13-.21.36.36,0,0,1,.23-.08h1.19a.24.24,0,0,1,.19.08.22.22,0,0,1,0,.21l-1.62,7.67a.41.41,0,0,1-.13.2.31.31,0,0,1-.22.09h-1.07a.3.3,0,0,1-.24-.08l-.09-.13-2.13-4.81-1,4.73a.39.39,0,0,1-.13.21.36.36,0,0,1-.23.08Z"/><path class="cls-2" d="M168.07,61.88a3.28,3.28,0,0,1-1.54-.33,1.87,1.87,0,0,1-.88-.92,2.48,2.48,0,0,1-.12-1.4,4.16,4.16,0,0,1,.08-.54c0-.2.09-.38.14-.52a3.83,3.83,0,0,1,.66-1.41,2.89,2.89,0,0,1,1.15-.92,4,4,0,0,1,1.68-.33,3.19,3.19,0,0,1,1.52.33,1.87,1.87,0,0,1,.9.92,2.39,2.39,0,0,1,.14,1.41c0,.14-.06.32-.1.52l-.13.54a4.2,4.2,0,0,1-.65,1.4,2.79,2.79,0,0,1-1.14.92A4,4,0,0,1,168.07,61.88Zm.14-1.3a1.38,1.38,0,0,0,1-.36,2.12,2.12,0,0,0,.57-1c0-.12.07-.28.11-.47s.07-.36.09-.48a1.55,1.55,0,0,0-.09-1,.79.79,0,0,0-.77-.37,1.34,1.34,0,0,0-1,.37,2.13,2.13,0,0,0-.57,1c0,.12-.06.28-.11.48s-.07.35-.09.47a1.72,1.72,0,0,0,.08,1A.8.8,0,0,0,168.21,60.58Z"/><path class="cls-2" d="M172.74,61.76a.23.23,0,0,1-.24-.29l1.18-5.54a.39.39,0,0,1,.13-.21.35.35,0,0,1,.23-.09h1.15a.2.2,0,0,1,.18.09.26.26,0,0,1,0,.21l-.1.47a1.94,1.94,0,0,1,.71-.56,2.41,2.41,0,0,1,1.06-.21h.62a.26.26,0,0,1,.19.08.31.31,0,0,1,0,.22l-.23,1a.28.28,0,0,1-.12.21.32.32,0,0,1-.22.08h-1a1.33,1.33,0,0,0-.88.29,1.49,1.49,0,0,0-.47.82l-.67,3.13a.38.38,0,0,1-.12.21.4.4,0,0,1-.23.08Z"/><path class="cls-2" d="M180,61.88a2.56,2.56,0,0,1-1-.2,1.51,1.51,0,0,1-.68-.56,2.06,2.06,0,0,1-.33-.89,3.58,3.58,0,0,1,0-1.13c0-.15.06-.29.09-.41s.05-.25.09-.4a5.2,5.2,0,0,1,.41-1.11,3.22,3.22,0,0,1,.64-.88,2.71,2.71,0,0,1,.87-.58,2.8,2.8,0,0,1,1.1-.21,2.38,2.38,0,0,1,1.06.21,1.54,1.54,0,0,1,.63.54l.55-2.57a.32.32,0,0,1,.12-.22.37.37,0,0,1,.22-.08h1.21a.26.26,0,0,1,.2.08.31.31,0,0,1,0,.22l-1.65,7.78a.39.39,0,0,1-.13.21.36.36,0,0,1-.23.08H182a.24.24,0,0,1-.19-.08.25.25,0,0,1,0-.21l.08-.41a3,3,0,0,1-.79.59A2.47,2.47,0,0,1,180,61.88Zm.67-1.42a1.36,1.36,0,0,0,.77-.2,1.66,1.66,0,0,0,.52-.5,1.93,1.93,0,0,0,.29-.66c0-.15.08-.3.11-.45s.06-.3.08-.44a1.3,1.3,0,0,0,0-.62.92.92,0,0,0-.29-.47,1,1,0,0,0-.65-.19,1.29,1.29,0,0,0-.72.19,1.52,1.52,0,0,0-.5.51,4,4,0,0,0-.3.7l-.09.37c0,.12-.05.24-.07.36a3.3,3.3,0,0,0,0,.7.87.87,0,0,0,.24.51A.89.89,0,0,0,180.62,60.46Z"/></svg>