<svg id="Layer_1" data-name="Layer 1" xmlns="http://www.w3.org/2000/svg" width="201.43" height="68" viewBox="0 0 201.43 68"><defs><style>.cls-1{fill:#4c8c1e;}.cls-2{fill:#666;}</style></defs><path class="cls-1" d="M32,33.33c0-9.73,4.76-18.16,18.9-18.16,0,9.76-6.42,18.16-18.9,18.16"/><path class="cls-1" d="M54.63,58.9a18.55,18.55,0,0,0,6.77-1.15c0-7.7-4.59-13.21-12.71-17.18a48.19,48.19,0,0,0-20.84-4.73c3.06-9.18.83-20.58-2.14-26.84-3.28,6.56-5.34,17.79-2.18,26.94-6.2.45-11.11,3.15-13.19,6.71-.16.27-.47.85-.28,1s.39-.17.53-.3a11.89,11.89,0,0,1,8.05-3.09c6.58,0,11.23,5.46,14.51,8.74,7.05,7,13.94,10,21.48,9.95"/><path d="M81.8,22.71l-3.43,1.76a1.38,1.38,0,0,1-.51.21c-.13,0-.26-.09-.35-.3-.77-1.84-1.88-2.53-3-2.53H71.64a3.13,3.13,0,0,0-3.08,3.09V37.62a3.13,3.13,0,0,0,3.08,3.09h2.1a3,3,0,0,0,3-3.09v-2c0-.3-.12-.43-.42-.43h-4c-.3,0-.43-.13-.43-.43V31.11c0-.3.13-.43.43-.43h9c.3,0,.42.13.42.43v6.51c0,4.46-3.13,7.59-8,7.59h-2.1c-4.88,0-8-3.13-8-7.59V24.94c0-4.46,3.09-7.59,8-7.59h2.83c3.56,0,5.49,1.46,6.77,3.47a6.08,6.08,0,0,1,.82,1.59C82.06,22.54,82,22.62,81.8,22.71Z"/><path d="M95.43,44.78H85.79c-.3,0-.43-.13-.43-.43V18.21c0-.3.13-.43.43-.43h9.64c4.88,0,8,3.13,8,8v.43a7.13,7.13,0,0,1-2.27,4.63.35.35,0,0,0-.17.3.38.38,0,0,0,.17.3,7.66,7.66,0,0,1,2.27,4.84v.64C103.4,41.74,100.31,44.78,95.43,44.78Zm3.08-19.41a3.12,3.12,0,0,0-3.08-3.09H90.71c-.3,0-.42.13-.42.43v5.7c0,.3.12.43.42.43h4.72a3.13,3.13,0,0,0,3.08-3.09Zm0,11a3,3,0,0,0-3.08-3H90.71c-.3,0-.42.13-.42.43v6.08c0,.3.12.43.42.43h4.72a3.07,3.07,0,0,0,3.08-3.09Z"/><path d="M112,44.78H107.9c-.3,0-.43-.13-.43-.43V18.21c0-.3.13-.43.43-.43H112c.3,0,.43.13.43.43V44.35C112.4,44.65,112.27,44.78,112,44.78Z"/><path d="M133.36,22.28h-10.2c-.3,0-.43.13-.43.43v5.7c0,.3.13.43.43.43h8.35c.3,0,.43.13.43.43v3.64c0,.3-.13.43-.43.43h-8.35c-.3,0-.43.13-.43.43V44.35c0,.3-.13.43-.43.43h-4.07c-.3,0-.43-.13-.43-.43V18.21c0-.3.13-.43.43-.43h15.13c.3,0,.43.13.43.43v3.64C133.79,22.15,133.66,22.28,133.36,22.28Z"/><path class="cls-2" d="M70.65,58.9a.18.18,0,0,1-.17-.1.22.22,0,0,1,0-.21L74.3,52a.75.75,0,0,1,.17-.19.43.43,0,0,1,.27-.08h1.37a.32.32,0,0,1,.23.08.36.36,0,0,1,.08.19l1,6.55a.29.29,0,0,1,0,.23.25.25,0,0,1-.18.08h-1a.32.32,0,0,1-.22-.07.53.53,0,0,1-.08-.17l-.2-1.11H72.82l-.69,1.14a.43.43,0,0,1-.13.14.31.31,0,0,1-.22.07Zm2.83-2.66h2.11l-.44-2.93Z"/><path class="cls-2" d="M78.51,58.9a.24.24,0,0,1-.17-.07.24.24,0,0,1,0-.19l1-4.78a.29.29,0,0,1,.11-.19.37.37,0,0,1,.2-.07h.94a.22.22,0,0,1,.16.07.24.24,0,0,1,0,.19l-.07.34a4.4,4.4,0,0,1,.39-.35,1.74,1.74,0,0,1,.49-.25,1.81,1.81,0,0,1,.65-.1,1.71,1.71,0,0,1,1,.24,1.19,1.19,0,0,1,.52.66,2.69,2.69,0,0,1,.74-.65,1.87,1.87,0,0,1,1-.25,1.81,1.81,0,0,1,1,.24,1.31,1.31,0,0,1,.56.73,2.44,2.44,0,0,1,0,1.27l-.62,2.9a.33.33,0,0,1-.11.19.34.34,0,0,1-.19.07H85a.22.22,0,0,1-.16-.07.24.24,0,0,1,0-.19l.61-2.82a1.87,1.87,0,0,0,0-.65.55.55,0,0,0-.22-.35.87.87,0,0,0-.42-.1,1.1,1.1,0,0,0-.87.45,1.39,1.39,0,0,0-.27.65l-.61,2.82a.39.39,0,0,1-.1.19.35.35,0,0,1-.2.07h-1a.2.2,0,0,1-.16-.07.24.24,0,0,1,0-.19l.6-2.82a1.48,1.48,0,0,0,0-.65.56.56,0,0,0-.23-.35.82.82,0,0,0-.4-.1,1.14,1.14,0,0,0-.45.11,1.31,1.31,0,0,0-.42.34,1.51,1.51,0,0,0-.28.64l-.6,2.83a.29.29,0,0,1-.11.19.34.34,0,0,1-.19.07Z"/><path class="cls-2" d="M90,59a2.65,2.65,0,0,1-1.29-.29,1.52,1.52,0,0,1-.71-.86,3,3,0,0,1,0-1.4,1.65,1.65,0,0,0,0-.21,1.29,1.29,0,0,1,.06-.22,3.51,3.51,0,0,1,.63-1.35,2.9,2.9,0,0,1,1.07-.87,3.26,3.26,0,0,1,1.4-.3,2.33,2.33,0,0,1,1.35.35,1.71,1.71,0,0,1,.66,1,3,3,0,0,1,0,1.39l0,.23a.31.31,0,0,1-.12.18.35.35,0,0,1-.2.07H89.52v0s0,0,0,0a2,2,0,0,0,0,.6.74.74,0,0,0,.24.43.72.72,0,0,0,.49.16,1.11,1.11,0,0,0,.43-.07,1.49,1.49,0,0,0,.31-.17,2,2,0,0,0,.2-.18.78.78,0,0,1,.17-.12.5.5,0,0,1,.19,0h1.06a.19.19,0,0,1,.15.06.15.15,0,0,1,0,.15,1.12,1.12,0,0,1-.25.41,3.07,3.07,0,0,1-.56.47,3.51,3.51,0,0,1-.85.38A3.59,3.59,0,0,1,90,59Zm-.3-3.25h2v0a1.42,1.42,0,0,0,0-.64.79.79,0,0,0-.26-.42.81.81,0,0,0-.51-.15,1.1,1.1,0,0,0-.57.15,1.3,1.3,0,0,0-.42.42,2,2,0,0,0-.26.64Z"/><path class="cls-2" d="M94,58.9a.24.24,0,0,1-.17-.07.24.24,0,0,1,0-.19l1-4.78a.29.29,0,0,1,.11-.18.32.32,0,0,1,.2-.08h1a.19.19,0,0,1,.16.08.22.22,0,0,1,0,.18l-.08.41a1.64,1.64,0,0,1,.61-.49,2.08,2.08,0,0,1,.91-.18h.54a.22.22,0,0,1,.16.07.24.24,0,0,1,0,.19l-.2.87a.32.32,0,0,1-.1.19A.34.34,0,0,1,98,55h-.89a1.14,1.14,0,0,0-.76.25,1.22,1.22,0,0,0-.4.71l-.58,2.69a.29.29,0,0,1-.11.19.32.32,0,0,1-.19.07Z"/><path class="cls-2" d="M98.53,58.9a.22.22,0,0,1-.16-.07.21.21,0,0,1,0-.19l1-4.78a.3.3,0,0,1,.12-.19.34.34,0,0,1,.19-.07h1a.2.2,0,0,1,.16.07.29.29,0,0,1,0,.19l-1,4.78a.32.32,0,0,1-.1.19.32.32,0,0,1-.19.07Zm1.27-6.11a.24.24,0,0,1-.17-.07.24.24,0,0,1,0-.19l.17-.81a.29.29,0,0,1,.11-.19.3.3,0,0,1,.2-.08h1.07a.18.18,0,0,1,.16.08.24.24,0,0,1,0,.19l-.18.81a.25.25,0,0,1-.11.19.34.34,0,0,1-.19.07Z"/><path class="cls-2" d="M103.6,59a2.59,2.59,0,0,1-1.23-.28,1.62,1.62,0,0,1-.78-.79,2.07,2.07,0,0,1-.13-1.26l.08-.41c0-.17.07-.31.09-.42a3.06,3.06,0,0,1,1.05-1.72,3.32,3.32,0,0,1,3-.43,2.08,2.08,0,0,1,.71.49,1.46,1.46,0,0,1,.36.6,1.38,1.38,0,0,1,.07.54.27.27,0,0,1-.1.19.24.24,0,0,1-.18.07h-1.11a.25.25,0,0,1-.16,0,.34.34,0,0,1-.07-.17.69.69,0,0,0-.2-.51.82.82,0,0,0-.55-.17,1.19,1.19,0,0,0-.8.3,1.72,1.72,0,0,0-.49.91l-.09.39a2.45,2.45,0,0,0-.06.34,1.4,1.4,0,0,0,.07.91.71.71,0,0,0,.64.29,1.28,1.28,0,0,0,.63-.15,1.3,1.3,0,0,0,.47-.51A.48.48,0,0,1,105,57a.3.3,0,0,1,.18-.05h1.1a.18.18,0,0,1,.16.08.19.19,0,0,1,0,.18,2.16,2.16,0,0,1-.25.52,2.85,2.85,0,0,1-.53.6,3,3,0,0,1-.85.49A3.53,3.53,0,0,1,103.6,59Z"/><path class="cls-2" d="M109.26,59a2.19,2.19,0,0,1-.88-.17,1.32,1.32,0,0,1-.58-.49,1.82,1.82,0,0,1-.28-.76,3,3,0,0,1,0-1c0-.13,0-.25.07-.35s0-.22.08-.35a4,4,0,0,1,.35-1,3.09,3.09,0,0,1,.55-.76,2.28,2.28,0,0,1,.76-.5,2.5,2.5,0,0,1,1-.18,1.92,1.92,0,0,1,1,.19,1.53,1.53,0,0,1,.51.46l.06-.29a.29.29,0,0,1,.11-.19.34.34,0,0,1,.19-.07h1a.22.22,0,0,1,.17.07.24.24,0,0,1,0,.19l-1,4.78a.32.32,0,0,1-.1.19.35.35,0,0,1-.2.07h-1a.22.22,0,0,1-.17-.07.24.24,0,0,1,0-.19l.07-.34a2.72,2.72,0,0,1-.67.5A2,2,0,0,1,109.26,59Zm.59-1.22a1.15,1.15,0,0,0,.65-.18,1.39,1.39,0,0,0,.44-.43,2.06,2.06,0,0,0,.25-.57l.09-.39c0-.13,0-.25.07-.38a1.18,1.18,0,0,0,0-.53.64.64,0,0,0-.24-.41.8.8,0,0,0-.55-.17,1.09,1.09,0,0,0-.61.17,1.36,1.36,0,0,0-.42.44,3,3,0,0,0-.26.61c0,.1,0,.2-.08.31l-.06.32a3,3,0,0,0,0,.6.63.63,0,0,0,.2.44A.73.73,0,0,0,109.85,57.78Z"/><path class="cls-2" d="M117.35,59a2.16,2.16,0,0,1-.88-.17,1.38,1.38,0,0,1-.6-.49,1.82,1.82,0,0,1-.28-.76,3.23,3.23,0,0,1,0-1c0-.13.05-.25.07-.35s0-.22.08-.35a4.55,4.55,0,0,1,.36-1,2.85,2.85,0,0,1,.55-.76,2.35,2.35,0,0,1,.75-.5,2.47,2.47,0,0,1,1-.18,2.1,2.1,0,0,1,.92.18,1.33,1.33,0,0,1,.55.46l.47-2.22a.32.32,0,0,1,.1-.18.28.28,0,0,1,.19-.07h1a.19.19,0,0,1,.17.07.19.19,0,0,1,0,.18l-1.42,6.72a.33.33,0,0,1-.11.19.35.35,0,0,1-.2.07h-1a.21.21,0,0,1-.17-.07.24.24,0,0,1,0-.19l.07-.34a2.78,2.78,0,0,1-.68.5A2.13,2.13,0,0,1,117.35,59Zm.58-1.22a1.22,1.22,0,0,0,.67-.18,1.54,1.54,0,0,0,.45-.43,1.8,1.8,0,0,0,.25-.57l.09-.39c0-.13,0-.25.07-.38a1.18,1.18,0,0,0,0-.53.7.7,0,0,0-.25-.41.85.85,0,0,0-.56-.17,1.13,1.13,0,0,0-.62.17,1.29,1.29,0,0,0-.43.44,3.05,3.05,0,0,0-.27.61c0,.1,0,.2-.07.31a1.8,1.8,0,0,0-.06.32,2.42,2.42,0,0,0,0,.6.68.68,0,0,0,.21.44A.77.77,0,0,0,117.93,57.78Z"/><path class="cls-2" d="M124.19,59a2.62,2.62,0,0,1-1.29-.29,1.52,1.52,0,0,1-.71-.86,2.92,2.92,0,0,1,0-1.4,1.65,1.65,0,0,0,0-.21,1.49,1.49,0,0,1,0-.22,3.68,3.68,0,0,1,.64-1.35A2.9,2.9,0,0,1,124,53.8a3.23,3.23,0,0,1,1.4-.3,2.33,2.33,0,0,1,1.35.35,1.71,1.71,0,0,1,.66,1,3.24,3.24,0,0,1,0,1.39l0,.23a.36.36,0,0,1-.12.18.37.37,0,0,1-.2.07h-3.32a0,0,0,0,1,0,0,.07.07,0,0,1,0,0,2,2,0,0,0,0,.6.69.69,0,0,0,.24.43.71.71,0,0,0,.49.16,1.11,1.11,0,0,0,.43-.07,1.49,1.49,0,0,0,.31-.17,2,2,0,0,0,.2-.18.6.6,0,0,1,.17-.12.44.44,0,0,1,.19,0h1a.21.21,0,0,1,.16.06.15.15,0,0,1,0,.15,1.12,1.12,0,0,1-.25.41,2.85,2.85,0,0,1-.57.47,3.27,3.27,0,0,1-.84.38A3.59,3.59,0,0,1,124.19,59Zm-.31-3.25h2v0a1.28,1.28,0,0,0,0-.64.78.78,0,0,0-.25-.42.81.81,0,0,0-.51-.15,1.1,1.1,0,0,0-.57.15,1.43,1.43,0,0,0-.43.42,2.32,2.32,0,0,0-.26.64Z"/><path class="cls-2" d="M128.13,58.9a.24.24,0,0,1-.17-.07.24.24,0,0,1,0-.19l1.44-6.72a.32.32,0,0,1,.1-.18.28.28,0,0,1,.19-.07h1a.19.19,0,0,1,.17.07.19.19,0,0,1,0,.18l-1.43,6.72a.39.39,0,0,1-.1.19.35.35,0,0,1-.2.07Z"/><path class="cls-2" d="M133,58.9a.22.22,0,0,1-.16-.07.24.24,0,0,1,0-.19l1.4-6.62a.34.34,0,0,1,.11-.18.29.29,0,0,1,.2-.07h.92a.25.25,0,0,1,.21.07.28.28,0,0,1,.07.11l1.82,4.28.9-4.21a.29.29,0,0,1,.11-.18.27.27,0,0,1,.2-.07h1a.19.19,0,0,1,.17.07.22.22,0,0,1,0,.18l-1.41,6.62a.32.32,0,0,1-.1.18.31.31,0,0,1-.19.08h-.93a.29.29,0,0,1-.21-.07.4.4,0,0,1-.07-.12l-1.85-4.15-.86,4.08a.33.33,0,0,1-.11.19.35.35,0,0,1-.2.07Z"/><path class="cls-2" d="M142.45,59a2.82,2.82,0,0,1-1.33-.28,1.6,1.6,0,0,1-.76-.8,2.1,2.1,0,0,1-.11-1.21c0-.14,0-.29.07-.46s.08-.33.12-.46a3.31,3.31,0,0,1,.57-1.21,2.54,2.54,0,0,1,1-.8,3.41,3.41,0,0,1,1.45-.28,2.73,2.73,0,0,1,1.31.28,1.68,1.68,0,0,1,.78.8,2,2,0,0,1,.12,1.21c0,.13,0,.28-.09.46s-.07.32-.11.46a3.64,3.64,0,0,1-.56,1.21,2.44,2.44,0,0,1-1,.8A3.44,3.44,0,0,1,142.45,59Zm.12-1.12a1.2,1.2,0,0,0,.85-.31,1.84,1.84,0,0,0,.48-.91c0-.1.06-.24.1-.41s.06-.3.08-.41a1.49,1.49,0,0,0-.07-.9.71.71,0,0,0-.68-.32,1.16,1.16,0,0,0-.83.32,1.78,1.78,0,0,0-.49.9c0,.11-.06.24-.1.41s-.06.31-.07.41a1.45,1.45,0,0,0,.06.91A.7.7,0,0,0,142.57,57.88Z"/><path class="cls-2" d="M146.48,58.9a.22.22,0,0,1-.16-.07.21.21,0,0,1,0-.19l1-4.78a.29.29,0,0,1,.11-.18.29.29,0,0,1,.19-.08h1a.19.19,0,0,1,.16.08.22.22,0,0,1,0,.18l-.08.41a1.67,1.67,0,0,1,.62-.49,2,2,0,0,1,.91-.18h.54a.22.22,0,0,1,.16.07.24.24,0,0,1,0,.19l-.19.87a.33.33,0,0,1-.11.19.34.34,0,0,1-.19.07h-.88a1.12,1.12,0,0,0-.76.25,1.16,1.16,0,0,0-.4.71l-.58,2.69a.33.33,0,0,1-.11.19.35.35,0,0,1-.2.07Z"/><path class="cls-2" d="M153.73,58.9a2.42,2.42,0,0,1-1.1-.21,1.06,1.06,0,0,1-.56-.65,2.36,2.36,0,0,1,0-1.1l.46-2.14h-.79a.19.19,0,0,1-.17-.07.18.18,0,0,1,0-.18l.14-.69a.29.29,0,0,1,.11-.19.37.37,0,0,1,.19-.07h.81l.35-1.68a.34.34,0,0,1,.11-.18.31.31,0,0,1,.2-.07h1a.19.19,0,0,1,.16.07.22.22,0,0,1,0,.18l-.37,1.68h1.28a.2.2,0,0,1,.16.07.29.29,0,0,1,0,.19l-.14.69a.28.28,0,0,1-.11.18.29.29,0,0,1-.2.07H154l-.43,2a2.69,2.69,0,0,0-.05.44.35.35,0,0,0,.1.29.56.56,0,0,0,.37.1h.77a.19.19,0,0,1,.16.07.19.19,0,0,1,0,.17l-.17.75a.27.27,0,0,1-.1.19.32.32,0,0,1-.19.07Z"/><path class="cls-2" d="M157.93,59a2.62,2.62,0,0,1-1.29-.29,1.52,1.52,0,0,1-.71-.86,2.92,2.92,0,0,1-.05-1.4,1.65,1.65,0,0,0,.05-.21.8.8,0,0,1,0-.22,3.68,3.68,0,0,1,.64-1.35,2.82,2.82,0,0,1,1.07-.87,3.23,3.23,0,0,1,1.4-.3,2.33,2.33,0,0,1,1.35.35,1.71,1.71,0,0,1,.66,1,3.24,3.24,0,0,1,0,1.39l0,.23a.29.29,0,0,1-.11.18.37.37,0,0,1-.2.07h-3.32a0,0,0,0,1,0,0,.07.07,0,0,1,0,0,1.51,1.51,0,0,0,0,.6.69.69,0,0,0,.24.43.71.71,0,0,0,.49.16,1.14,1.14,0,0,0,.43-.07,1.49,1.49,0,0,0,.31-.17l.2-.18a.6.6,0,0,1,.17-.12.44.44,0,0,1,.19,0h1a.21.21,0,0,1,.16.06.15.15,0,0,1,0,.15,1.12,1.12,0,0,1-.25.41,2.85,2.85,0,0,1-.57.47,3.44,3.44,0,0,1-.84.38A3.59,3.59,0,0,1,157.93,59Zm-.31-3.25h2v0a1.28,1.28,0,0,0,0-.64.74.74,0,0,0-.26-.42.76.76,0,0,0-.5-.15,1.11,1.11,0,0,0-.58.15,1.4,1.4,0,0,0-.42.42,2.32,2.32,0,0,0-.26.64Z"/></svg>